<svg xmlns="http://www.w3.org/2000/svg" width="319.981" height="51.2" viewBox="0 0 319.981 51.2"><defs><clipPath id="a"><path d="M0 38.4h239.986V0H0z"/></clipPath></defs><path d="M27.556 1.266v17.908h-9.787V1.266H-.001v48.586h17.77v-18.81h9.787v18.81h17.768V1.266zm24.084 0h31.65v14.09H69.41v4.026h12.77v11.87H69.41v4.511h14.575v14.09H51.64zm34.885-.07h17.768l7.148 14.3 7.152-14.3h17.768l-16.033 28.806v19.85h-17.77v-19.85zm52.737.07h17.768v34.497h12.771v14.09h-30.539zm34.246 0h17.768v34.497h12.771v14.09h-30.539zm131.897 0l-4.096 18.672-4.164-18.672H281.11l-4.232 18.672-4.025-18.672h-14.579l10.968 48.586h15.479l4.372-20.266 4.442 20.266h15.478L319.98 1.266z" fill="#000001"/><g clip-path="url(#a)" transform="matrix(1.33333 0 0 -1.33333 0 51.2)"><path d="M176.369 12.81c-.946-.577-1.418-1.338-1.418-2.283 0-.623.225-1.171.674-1.644.449-.472 1.032-.71 1.748-.71.275 0 .56.036.851.106-1.329-.837-2.884-1.256-4.666-1.256-1.892 0-3.534.489-4.929 1.47a8.311 8.311 0 0 0-1.82 1.756c.117-.007.235-.012.355-.012 1.478 0 2.76.495 3.845 1.485 1.086.99 1.627 2.209 1.627 3.659 0 1.68-.554 2.986-1.663 3.919-1.109.932-2.423 1.397-3.948 1.397 0 2.256 1.351 4.131 4.053 5.628.947.575 1.42 1.334 1.42 2.279 0 .621-.225 1.167-.676 1.639a2.219 2.219 0 0 1-1.283.67 8.998 8.998 0 0 0 3.019.499c2.522 0 4.59-.835 6.206-2.503-1.261-.104-2.37-.591-3.325-1.466-1.085-.992-1.626-2.214-1.626-3.667 0-1.684.553-2.992 1.66-3.927 1.107-.933 2.422-1.401 3.944-1.401 0-2.259-1.35-4.139-4.048-5.638m-2.76 25.59c-10.604 0-19.2-8.596-19.2-19.2S163.005 0 173.609 0s19.2 8.596 19.2 19.2-8.596 19.2-19.2 19.2" fill="#000001"/></g></svg>