<svg xmlns="http://www.w3.org/2000/svg" width="210.404" height="268.651" viewBox="0 0 210.404 268.651"><defs><clipPath id="a"><path d="M0 201.488h157.803V0H0z"/></clipPath></defs><g clip-path="url(#a)" transform="matrix(1.33333 0 0 -1.33333 0 268.65)" fill="#fff" fill-rule="evenodd"><path d="M157.772 69.459c.089.358-.039.785-.091 1.034h-.181c.054.171-.013.072.09.171.009.325.045.742-.09.946l-.365.259v.258l-.182.086v.259h-.09v.258h-.091v.172h-.091v.171c-.054.075-.687.448-.91.345a9.339 9.339 0 0 1-.091-.172h-.092v.258c-.022.036-.129.072-.182.173-.399 0-.496-.024-.636-.259h-.091l.091.259-.273.085c-.057.048-.251.509-.273.603h-.182c-.139.47-.268.179-.546.431l-.455.516h-.182l-.182.258h-.182c-.03.058-.06.115-.091.171h-.182v.088h-.182v.085h-.273V76l-.273.086-.091.172c-.276.12-.537-.099-.728-.086h-.09v.086h-.456v.087h-.637l-.091.173h-.182v.085h-.454c.03-.058.06-.115.091-.171h-.274l-.09.257h-.092l-.09.172c-.164.119-.136-.041-.273.172h-.455v-.086h-.091v.086h-.274l-.363-.688c-.182-.052-.079.011-.182-.087-.433.032-.531.238-.273.431v.258h-.091v.086h-.273c.059.203.025.161.182.258-.037.338-.135.379-.455.431l.091.344c-.092.074-.128.149-.182.259-.601-.009-.34-.029-.637-.259v-.086h-.091c.043.187.058.245.183.345l-.092.257-.091.087-.273-.087c-.035.015-.013.117-.272.173v.259c-.183-.053-.079.01-.183-.087h-.273c-.06.087-.121.172-.182.258h-.181l-.091.172c-.115.1-.267.142-.364.259-.334-.03-.668-.057-1.001-.086v-.087c-.256-.188-.173-.313-.637-.344-.055-.171.012-.075-.091-.172.069-.235.021-.197.273-.258v-.173h-.456l-.09-.259-.364-.257v-.172h-.182v.172h-.365c-.125-.026.037-.101-.09-.086v.086h-.546v-.172h-.455l-.091.172c-.172.15-.344.315-.455.516v.173h-.091v.345h-.091v.085h-.181v-.085c-.151-.105-.342-.208-.456-.345h-.091l.091-.173h-.091v-.86h-.091l-.091-.257c-.103-.074-.014.011-.091-.088h-.091l.091.345h.091c.144.383-.059.912-.091 1.205-.562-.024-.48-.09-.819-.259h-.182v-.086h-.181v-.085l-.728-.086v-.088h-.183v-.086l-.273-.085v-.258c-.224-.121-.347-.284-.454-.517-.625.013-1.735.173-2.002-.086h-.182v.086c.253.059.803.348 1.092.088h1.001v.086c.192.13.263.307.455.429v.257c.09.03.181.059.273.086v.088l.454.086v.085h.456v.086h.181c.315.152.406.329.91.345.024.113.13.6.182.689l.273.171v.259h.091v.172h.091v.259h.091l.091.171h.183l.454.603h.091c-.031-.257-.008-.236-.182-.344l.273-.43c.212.029.425.056.637.086v.085h.091v.085l-.273.174v.429h-.091v.087c.163-.082.142-.123.364-.172l.182.775c-.359-.013-.417-.044-.546-.258h-.091l.091-.259h-.364c.091.165.199.412.364.517-.035.318-.024.313-.364.343v.086l.637.259c.054.172-.013.074.091.172a1.045 1.045 0 0 1-.091.43h-.546v-.086h-.182c-.094.084.091.086.091.086l-.091.861c-.061.029-.122.057-.182.087v.172h-.091l.091.601h-.091v.259h-.091l-.091.345h-.09l-.092.429h-.091v.345l-.273.086c-.058.048-.25.507-.273.603-.382.045-.295.121-.545.257v.172h-.183l-.091.259h-.091v.172h-.091v.259h-.091c-.223.318-.546.257-.909.429v.087h-.183v.086c-.504.166-.512-.405-.727.172h-.091v-.258h-.091c.029.143.06.286.091.43-.507.018-.521.178-.91.259v-.173l-.273.087v-.173l-.819-.086v.086h-.455v.086c-.139.023-.177-.085-.182-.086-.213-.03-.238.045-.364.086a1.23 1.23 0 0 1-.091-.516h-.091l-.182.774-.182.086-.091.172-.455.086v.086c-.138.1-.157.125-.363.172v.086a24.079 24.079 0 0 1-.365-.086c-.055.172.013.075-.091.173-.161-.326-.284-.501-.273-1.033h-.091v.258h-.091v.086c-.05.054-.172-.24-.182-.257h-.091l-.09.515c.22.053.199.091.363.172.081.192.118.389.274.517v.602c-.076.125-.234.006-.365.086v.087l-.182.086v.172h-.09l-.182.258c-.137.082-.281-.034-.365.086v.172h-.181c-.055.172.012.074-.091.172v.087c-.186.097-.271-.115-.364-.087v.087h-.183l-.09.171h-.455c-.031-.055-.061-.115-.091-.171l-.638.085v-.085h-.181v-.087h-.546c-.176-.055-.52-.211-.637-.344h-.091c.11.187.218.256.273.516.165.027.182.086.182.086h.91v.087c.182.052.078-.012.182.085h.091v.517h.091c.093.189.023.211.182.346-.036.277-.082.25-.182.429h-.546l.091-.173c-.293.075-.322.221-.546.345v.086l-.273-.086v-.086l-.273-.086-.091.43h-.091c-.125.162-.21.199-.273.431l.637.086v.085c.102.098.039 0 .091.173-.103.075-.014-.011-.091.085-.283.01-.674.042-.819-.085h-.91c.104-.145.055-.121.273-.173v-.085c-.248-.136-.461.132-.637.085v-.085h-.182v-.086c-.125-.075-.157-.069-.363-.087v-.172l-1.365-.085v.085l-.546.086v.43c-.516.029-1.031.059-1.548.087-.272-.087-.545-.173-.818-.258-.155.183-.188.046-.273.343h.182l.091.259c-.06.029-.121.059-.182.086-.099.188.092.096-.091.258-.191.266-.124.039-.364.173l-.182.258c-.28.128-.736-.042-1.001.172-.324.202-.157.385-.364.603-.103.096.001.036-.182.085-.078-.087-.156-.121-.273-.172.008-.188-.018-.345.091-.43h.182v-.086h.273c.031-.016.077-.126.182-.172v-.171c-.906-.016-1.132-.311-1.82-.431v-.517h-.091c.005-.488.03-.369.273-.603h.092c.123-.143-.044-.13.181-.259l-.091-.429h.091l.091-.602c-.387-.044-.409-.184-.727-.259v-.172h-.183v.344h-.181c-.085.311-.163.184-.182.602h-.182v.173h.09c.027.148-.09.172-.09.172-.079.479.323.651.636.775-.009.329.019.359-.272.429.021.204.038.214.09.346-.118.07-.108.058-.182.171h-.363c.052.409.247.372.455.603h.181v.258c.294.033.266.078.455.171v.259c-.207.054-.22.075-.364.173v.086h-.182v.086h-.09v-.086h-.274l-.09-.172h-.183v-.346h-.09c-.101-.335-.027-.113-.273-.257v-.086h-.183v-.086h-.182v-.086h-.272v-.086h-.182c-.061-.086-.122-.171-.182-.258-.303-.27-.653-.363-1.274-.344-.1-.208-.173-.279-.182-.604-.092.075-.128.149-.183.258h-.363v-.086c-.369-.1-.182-.174-.455-.343-.027-.448-.082-.615 0-1.033-.294-.033-.266-.079-.455-.173.031-.17.061-.344.091-.516h-.091v-.086l-.364.086-.455-.86c-.061-.198.112-.239.091-.344h-.091l-.091-.689h-.273v.086c-.201.121-.315.341-.363.603l-.819.429v.344c-.33.071-.398.216-.637.345l-.092.602c-.478.047-.954.188-1.364.259l-.091-.429c-.273-.031-.546-.059-.819-.087l-.091-.172h-.273l-.182-.259c-.122-.027-.243-.058-.364-.086v-.086h-.091v.086c-.408.087-.372.249-.728.345v-.173c-.419.011-.469.025-.637.258h-.091l.091.344h-.091v.259c-.152.116-.303.229-.455.343v.174h-.091c-.125.128-.047.11-.273.171-.066.226-.144.274-.272.43h-.092v.172h-.091l-.091.603-.182.086-.09.345h-.092c-.052.251.155.187.182.258v.689h-.09l.09.947h.182c-.003.483-.143.765 0 1.203h.091v.518h.091v.172h.092v.173l.182.085v.258h.09v.086h-.09v.345h-.092l.092.43c-.274.138-.64.288-1.001.344v.431h-.092c-.123.403-.073.105-.363.258a9.339 9.339 0 0 0-.091.172c-.425.028-.849.057-1.274.087-.052.02 0 .118-.273.171a19.557 19.557 0 0 1-.091-.258l-1.092-.086-.091-.172c-.201-.067-.25.07-.364.086h-1.001s-.086-.144-.273-.086l-.091.172c-.172.04-.294-.102-.364-.172h-.272v.086c-.133.087.163.295.272.43h.091v.258c.061.03.122.057.182.087.115.184.001.362.091.601h.091v.173h.091l-.182.344h.091v.258c.061.028.121.059.182.086l.091.861h-.091c-.008.363.003.398-.364.43.092.189.203.393.364.518v.171h.091c.105-.167-.06-.447-.091-.517.121-.028.243-.056.364-.086v-.171h.182l-.091.603c.118.491.354.941.364 1.549.357.155-.156.104 0 .601h.091l.091.603.182.087v.257h.091v.172h.091c.083.215.025.592.091.776l-.182.086-.091.257h-.273v.087h-.182v.085c-.164.054-1.01-.128-1.092-.172l-.273-.343-.546-.087a6.863 6.863 0 0 0-.091-.171h-.182v-.087h-.546v-.086l-.273-.086-.272-1.291h-.092v-.431l-.273-.171v-.172h-.091v-.69c-.09-.027-.181-.057-.272-.085-.165-.122-.45-.574-.546-.775h-.364v-.086c-.119.09-.135.177-.274.258v.086c-.181-.057-.363-.115-.545-.171v.085c-.464-.054-.461-.3-.728-.517v-.086c-.265.124-.363.005-.728 0v-.172c-.425.071-.57.01-1.091 0-.061.258-.174.391-.274.603-.12.048-.217.031-.364.087v.085h-.273v.086l-.636-.086c-.057.731-.537.846-.547 1.635h-.272c-.098.201-.168.324-.365.43v.172h-.181v.174h-.183l-.09.344c-.061.027-.122.056-.183.085l.092.344h-.092v.173l-.272.172v.344h-.091v.087c-.117-.072-.1-.074-.182-.172h-.091l.091.515h.09l-.09.861h.09l.183.775h-.091v.345h-.092v.601l-.181.086c-.089.212.074.412.091.517l-.183 1.033h.092l-.092.516.183.087c.122.151.152.269.182.515h.363c.086.349.258.429.273.862-.181.051-.078-.012-.181.087h-.092l.092.257h.091l-.091.258h-.182c-.029.195-.013.222-.092.344h-.09v.259h-.091v.343h-.092l.092.689h-.182c.054.172-.013.074.09.173v.086l.273-.086c.077.19.098.468.092.773.413.056.227.076.455.259v.086h.363c.031.058.062.115.091.173h.273v.085h.092l-.092.345h.274c.054.171-.013.075.091.172v.086l.545-.086v.086l.365.259v-.087h.09c.01.216-.028.41.091.517.092.028.182.056.274.086v.515c.09-.027.181-.056.272-.085v-.087h.274v-.085h.181c.031.056.061.115.091.172l.546.171v.259c.048-.022.182-.173.182-.173.308-.116.422.166.455.173h.091c.15-.001.103-.138.182-.173.182-.028.364-.055.546-.086v-.086c.377.05.317.18.637.259v-.344c.235-.057.261-.088.364-.258.414.021.388.121.637.258v-.172h-.182c-.055-.171.012-.075-.091-.171v-.259h.091c.086-.083.484-.257.728-.173l.09.173c.122-.029.243-.059.364-.086-.058.203-.025.16-.181.258.012.341.044.394.273.515v.086c.338-.088.405-.271.818-.343v-.258c.102-.074.015.011.091-.086h.455v-.345h.274c.077.097-.013.014.09.086l-.09.432c-.24.009-.31.033-.455.085.037.337.134.377.455.429-.059.205-.027.163-.183.259-.072.047.03.13-.091.086v-.086a14.82 14.82 0 0 1-.181-.086c-.076.112-.063.103-.182.172v.173a1.232 1.232 0 0 1-.456-.086v.172c-.181.051-.078-.012-.182.087-.102.073-.014-.013-.091.085.238.069.482.006.911 0l.09.258.637.172v-.086h.273l.091-.172h.182v-.086l.364.086v.344h.182l.091-.516h.364v.172l.364.086v.258h.091l.182-.344c.308.032.293 0 .364.258l.546-.086c-.055-.172.012-.074-.091-.172.093-.327.251-.382.637-.43h.273l.182-.432h.272l.183-.257c.121.029.242.058.364.085v-.085c.294.07.508.293.636.516.995-.025.542-.457.911-.946h.09l.091-.172c.011-.006.325-.07.364-.086l.091-1.205h-.091c-.071-.195-.122-.777 0-.947h.091c.078-.097-.012-.015.091-.086.077.16.14.224.182.429h.364c-.012-.375-.115-.626-.364-.773.003-.473.006-.573.273-.776v-.085c.25-.147.11.128.364-.173h.091v-.344l.182-.086v-.172h.091v-.43c.091-.058.182-.116.273-.171l.182-.518.273-.086c.137-.107.049-.209.273-.345v-.086c.19.089.082.063.273 0l.091.345c-.001.002-.134.038-.091.172h.091v.172l.182.087v.259h.091v.773h.091v.345h.091v.085h-.091v.516l-.182.087-.091.861-.182.085v.258a7.47 7.47 0 0 1-.182.086l.091.431h-.091v.172l-.273.173.091.43h-.091v.259h-.091v.171h-.091l-.091.517h-.091v.774h-.091v.259h-.091c-.162.178-.186.053-.273.344.102.097.039-.001.091.172l.273.086-.091.689h.182l.182.86h.091l-.091.259c.257.063.261.153.455.258-.021.202-.038.213-.091.344.459.16.543.074.637.603.091-.03.182-.058.273-.086l.546.43v.258H105c.013.391.11.41.182.689l.363-.087c.133.156.436.346.638.432h.273v.085c.187.153.056.179.364.258.101.349.221.187.272.602.213.05.34.123.455.259h.091c.053.133-.225.441-.273.602h.455v.171h.183c-.07.261-.238.406-.456.519v.085c.25-.073.37-.022.637.086l.091-.258h.182v-.086c.122-.045.412.203.455.258h.091v.086h-.273v.259c-.102.073-.014-.012-.091.085-.225.041-.333.083-.636.086v.258c.296.026.491.095.636.258h.091l-.091.259h-.091l.091.43c-.182.037-.746.236-.819.345v.172c-.063.14-.143.182-.273.258v.086c.243.029.486.056.728.087-.075.342-.265.465-.546.601v.086h.274v.172c-.264.064-.302.093-.365.345-.247.065-.207.02-.273.258h.273l-.091.603h.182l.182.774h.092l-.092.602c.152.029.303.059.455.087l.091.171c.152-.027.303-.057.455-.085v.259h.091c.078.095-.012.012.091.086.078-.097-.012-.014.091-.086l-.091-.432c-.345-.08-.288-.189-.455-.43h-.091l-.091-.258h.182v-.086c-.152-.115-.303-.23-.455-.343.026-.13.19-.394.182-.432l-.182-.086.091-.257h.091l-.091-.345h.091v-.086h.273v.172h.364v-.516c.211.106.429.212.728.258l-.091.43h.091v.173h.091c.081.12.064.149.091.344h-.182c.052.375.138.229.182.603-.507.118-.395.416-.364.859.207-.087.495-.188.637-.344h.455c.125.058.423.678.455.862.091-.03.182-.059.273-.086l.273.86-.091.516h-.273v.259h.182v.171c.151.116.303.231.455.344v.173l.273.173v.086h.363c.061.085.122.171.182.258l.092-.087c.24-.003.311.041.454.087l.092.258c.443.019.355.054.727 0v-.172h.273v.086h.091c.078.191-.15.213-.182.344h.091c.06.129.073.141.091.343.152-.027.304-.056.455-.086v-.257c.103-.074.014.012.091-.086l.455.086v.172h.364c-.077.097.012.014-.091.085-.118.17-.294.222-.545.26-.07.233-.022.196-.274.258v.257c.27.066.224.141.546.172-.048.363-.128.282-.272.518.157.069.289.101.363.258v.172h.091c.164.173.192.056.273.343h-.182c.074.27.214.386.273.689.264-.027.311-.049.455-.172.168.149-.099.16.273.258v-.258h.182v.258c.145-.052.215-.078.455-.086-.001.374.036.628.273.775v.172h.091l.091-.516c.182.051.078-.011.182.086h.091l-.091.172h.091v.172c.162-.091.297-.378.546-.344v.086h.182c.091.318.293.286.454.517h.183c-.023.407-.145.644-.273.946.102.073.014-.011.09.086.456-.054.567-.266 1.002-.345v.086h.273v.086h.09l.091.173c-.138.05-.148.068-.363.086v.172c.367.101.227.237.455.431.077-.097-.013-.013.09-.086-.063-.235-.123-.197-.182-.431h.182v-.172c.306.071.399.219.456.517.5.094.558.393.545.947.378-.182.07-.153.546-.087v-.344h-.273l.091-.258h-.091v-.172l-.182-.086v-.173h-.091v-.172c.523.263 1.068.276 1.911.258v-.086c-.122-.027-.243-.057-.364-.086l-.091-.258h-.091c-.159-.221.097-.168-.273-.259v-.086c-.121.03-.242.058-.364.086v.259c-.355-.011-.65-.072-.818-.259-.473-.12-.215-.262-.455-.514v-.087l-.546-.086v-.173l-.455-.344v-.258h-.091v-.345l.182-.086v-.172c.64-.015.616-.297 1-.517l.182.345h.183v-.086c-.097 0-.15-.075-.092-.173h.092v-.086c.098-.047.582.584.636.603l.365-.086-.092.517h.092v.43l.272-.086v.258h.091c.078.097-.012.015.091.086.072-.15.146-.327.273-.43.078-.096-.012-.013.091-.086l.091.258c-.037.054-.14.006-.091.172l.091.086 1.274.259.455.515c.091.03.181.058.273.086l.091.431h.091v.086h.273l-.092.259h-.363l.091.688c-.39-.043-.847-.509-1.001-.775h-.182c-.053.132-.073.141-.091.345h-.364l-.091.171h-.273v.087h-.182v.086h-.091l-.091-.173h-.182v.087c-.101.097-.039-.001-.091.172h.091v.086h.273v.086c.102.099.039-.001.091.173h-.091v.086c-.182-.029-.364-.059-.546-.086v.172h-.364v.257h-.272l.09.517h-.09c.033.291 0 .278.272.344v.345c-.303-.033-.515-.17-.637-.086h-.181c.056.11.088.182.181.258v.086h.273c-.054.171.013.074-.091.172.005.246.032.368.091.516h.182c-.054.172.014.074-.09.172l-.092.259c-.498-.019-.573-.103-.909-.259v-.085l-.546-.087v.344h.182c-.067.249-.098.286-.365.345.07.235.022.196.273.257.055.172-.012.076.092.174.081-.191.117-.388.272-.517v-.086l.274.086v.086h.454l.091.775c.182-.052.079.012.182-.086h.364v.086h.091l-.091.345h.091c.028.055.094.293 0 .429h-.091v.173c.164-.084.142-.124.364-.173-.037.546-.072.285-.364.517l-.182.344h-1.091c-.078.028-.006.22-.274.172v-.086h-.182v-.086l-.636-.086v-.087l-.547-.171v-.086h-.181l-.182-.258-.456-.087-.181-.258h-.274v-.086l-.181-.086v-.172c-.082-.101-.83-.477-1.001-.516-.032-.183-.091-.17-.091-.173l.091-.259c-.002-.002-.161.002-.273-.171h-.455c-.038-.593-.347-.652-.455-1.119-.464-.119-.277-.337-.546-.516-.262-.175-.361-.045-.546-.345h-.273c.078.097-.012.013.091.086l.182.259h.183v.086h.363v.086c.138.112-.024.002 0 .172l.182.085v.174l.182.171v.173l.273.172v.172c.138.224.263.302.273.687l-.273.087c-.078.097.012.014-.091.087v.086h.455c.07.029-.007.116.273.172.05.367.211.357.364.602h.182c.055.172-.013.074.091.172v.086h.455v.086h.091c-.097.166-.067.206.091.345v.086l.455.085v.259l.546.172.364.689-.091.172h.182v.173c.181-.174.289.118.546.171v.172c.044-.062.217-.123.364-.086v.086c.303-.057.606-.116.91-.172v.086c.283.069.482-.125.636-.086v.086h.273c.074.035.023.237.273.172v-.086h.182l.092-.172c.181.029.363.056.545.086v.086c.265.077.451-.054.637-.086v.172c.166.028.397.18.637.086v-.086c.123-.068.32-.234.546-.172v.086h.182v.086c.126.076.157.063.364.086.063-.235.123-.194.182-.43h.364c.127.02-.037.098.091.086l.091-.086c.053.132.072.139.091.344.202-.02.244-.006.364-.086v-.086h.181v-.086c.418.056.224.08.456.258v.086c.193.098.37-.102.455-.086v.086h.181c.029.015.087.125.183.172v.43h.182v-.085c.07-.025.625.322.636.344l-.091.43h.091c.148.22.269.219.273.603.152.028.304.057.455.087v.258c.169-.062.356-.09.637-.087l.091.259.819-.087v.172c.273.116.546.23.819.344v.173h.273c.063.234.123.194.182.43h.182c-.103.452-.214.493-.274.861h.182c-.019.418-.057.335 0 .688l-.182.086v.086c-.132-.06-.148-.076-.363-.086v-.258h-.182c-.006.378.036.341-.182.516v.086h-.273v.087l-.273.086-.182.258h-.273v.086c-.603.025-.626.057-.546-.344h-.728v-.086h-.182l-.364-.431h-.182v-.086h-.273l-.09-.172h-.274c-.336-.138-.316-.199-.455-.516h-.364c-.075.276-.176.296-.181.688l.545.086v-.086h.364l.091.172.274.086v.086c.121.03.242.058.363.086l.091.173h.273c.062.086.122.172.182.258h.182v.086c.102.025.166-.168.365-.086l.09.172h.182v.087h.273v.086l.182.085v.172l.273.086v.173c-.01.009-.227-.131-.364-.087v.087h-.091l-.091.086v.43h-.091v.086h-.091v-.086c-.175-.107-.227-.197-.272-.43l-.637.172c-.054.373-.174.315-.183.774-.22-.052-.2-.089-.364-.172v.172c-.312-.084-.169-.109-.363-.258v-.086h-.091v.259h-.092v.085l-.272-.085c-.031.056-.061.115-.091.171-.182-.028-.364-.056-.547-.086l.091.517h-.091v.431c-.356.05-.32.102-.545.258v.085l-.819.086v.602h-.365c.054.133.074.141.092.345-.199-.04-.258-.055-.364-.172h-.091c-.149.263.161.388.182.43v.172h-.364v.259l.819-.087c.025.009.03.159.181.173.031-.057.062-.114.092-.173h.091l.091.432h-.091l-.091.258c-.182.028-.364.056-.547.086-.054.172.014.074-.09.172v.085h-.455v.086l.273.087c.136.175.174.408.182.688-.247.066-.276.143-.455.26v.084h-.364l.091.259c-.139.05-.148.069-.364.086v.086h.182c.047.205.107.269.182.431-.18.064-.513.132-.819.086v-.086c-.031-.005-.203.079-.364.086.13.438.215.173.546.344.029.015.079.125.182.171-.033.241.006.259-.182.345h-.182v.086h-.091c.087.153.131.133.182.344h-.273v.259c-.157.021-.375.104-.546 0v-.086h-.091v.344h-.182v.345c-.091.261-.381.446 0 .687-.009.33.018.36-.273.431V173h-.091l.091.516c-.182-.028-.363-.058-.546-.084l-.091-.604c-.182-.053-.078.012-.182-.086h-.09v-.431h-.092c-.087-.091-.148-.116-.273-.171.011-.29-.004-.316.182-.43-.049-.091-.166-.147-.182-.172v-.26l-.636-.429.09-.517c-.248.06-.205.116-.454.172a26.455 26.455 0 0 1-.091-.258h-.091v-.345h-.091c-.08-.094.005-.003-.091-.086v-.085h-.183v-.086h-.272v-.085c-.091-.058-.182-.117-.273-.173-.121.29-.101.509-.456.601v.259l-.272.086c-.043-.187-.059-.243-.183-.345-.077-.095.013-.012-.09-.086v.172c-.061.031-.122.058-.182.087v.431h-.091l-.091.258h-.637v.171c-.215-.02-.225-.036-.364-.085-.191.213-.449.196-.546.516h-.091c-.03.084.355.679.182 1.033l-.182.085c-.107.141-.09.354-.091.603h.364v.087h.091v.257h-.273c.057.196.079.211.182.344h.091v.259h.091c.127.158.211.201.273.43h-.273c-.048-.021-.143-.28-.273-.257v.086h-.182v.085h-.637v.086h-.091l.091.259c.122.029.243.056.364.086v.171h-.455v.087h-.546v-.087l-.819.087c-.059.147-.09.27-.09.517-.092-.029-.183-.059-.274-.086l-.09.516c-.27.065-.224.14-.547.173v.344l-.273.085c-.09.115-.181.23-.273.344-.151.029-.303.057-.454.087v.086h-.273c-.024.012-.083.128-.182.172-.235-.362-.738-.357-1.001-.774-.405.01-.629.095-.91.171l-1.092-.086v.086h-.182l-.091.172c-.12-.013-.23-.148-.455-.086-.131.036-.484.249-.728.172v-.086h-.182v-.086c-.137-.082-.223-.069-.455-.086-.077-.098.013-.013-.09-.086.03-.273.092-.325.182-.516.266-.087.186-.093.454 0v-.344c-.181-.052-.078.011-.182-.086h-.09c.037-.075.163-.189.09-.346h-.09l-.092-.257-.272-.172a66.2 66.2 0 0 0-.092-.431h-.09l.09-.171c.156-.057.286-.086.546-.086a1.188 1.188 0 0 0-.364-.258l.182-.862h.092l-.092-.259h.092v-.085h.272v-.344h-.182v-.259h-.09v-.085c-.134.06-.15.076-.364.085v-.257h.09v-.43h-.09l-.82-.26v-.171c-.06-.029-.121-.057-.181-.087-.119-.243-.033-.498 0-.688h.364l.09-.172h.092v-.173c.15-.188.433-.288.727-.343l.092-.431.181-.086.091-.516.273-.173.364-1.032.273-.087v-.171h.182c-.126-.217-.398-.517-.455-.775-.004-.018.086-.589.092-.775h.181v.516h.091c.066-.3.206-.419.273-.688-.225-.04-.333-.083-.637-.086v-.087h-.091v-.343l-.546-.43-.091-.345-.273-.086-.454-.517h-.092v-.172c-.518-.101-1.026-.473-1.455-.688v-1.119c.292-.074.322-.22.546-.344l.09-1.205h-.09v-.517l.182-.086v-.257h-.092c-.021-.262.307-.293.273-.431h-.09v-.345c-.061-.027-.122-.057-.183-.086v-.172h-.09v-.171h-.092l.092-.517h-.092v-.086l-.454.086a.594.594 0 0 0-.273-.258v-.259a470.2 470.2 0 0 1-1.183.086l.091.259h-.091c-.085.329-.364.539-.728.602-.068.262-.174.37-.455.43.063.236.124.195.182.431-.328.264-.262.707-.819.774l.091.861h-.091v.516c.02.12.178.37.091.603h-.091l-.091.259h-.091l.091.429h.091l.091 1.119c-.283.03-.501.065-.728.172v.086h-.182v.087l-.455-.087v.087c-.121.028-.242.058-.364.085v.087l-.819-.087c-.024.006-.028.111-.182.087v-.087h-.455l-.09.173-.364.086v.172c-.212.029-.425.057-.637.087l-.182.343c-.105.049-.537-.111-.819 0v.086c-.288.139-.049-.053-.273.173h-.091l-.091.257c-.215.119-.546.01-.819 0-.002.508-.09.624-.273.947h-.091v.259h-.091v.086h-.637l-.364.431h-.455v.086c-.151.028-.303.056-.455.086-.06.087-.121.172-.181.257h-.456l-.09.173c-.288.165-.355.054-.547.344l-.818-.087v-.086h-.182v-.086h-.455c-.059-.024-.005-.111-.273-.172-.05.13-.114.207-.091.431h.091v.086h-.091v.258h-.091v.26c-.06.027-.121.057-.182.084v.173h-.091v.172h-.091v.517c-.091.056-.182.114-.273.172v.258h-.091v.171h-.091v.172c-.06.031-.121.058-.182.087v.258h-.091v.086l-1.001-.086v.086h-.091c-.221.013-.225-.208-.364-.172-.362.095-.47.715-.455 1.206-.091.027-.182.057-.272.085v.173h-.092c-.006.136.247.203.273.258v.774h.091V173l.182.087.092.258h.181v.344c-.181.052-.078-.012-.181.086-.103.098-.039-.001-.092.172.22.078.565.092.91.087v.172h-.182c.06.325.048.299.091.602.405.106.325.33.728.43v.345c.38-.009.48-.054.637.172h.091l-.091.344h.091v.344h.364v.344c.181-.051.078.013.182-.086h.546v.086c-.116.054-.194.085-.273.172h-.091v.086h.546l.09.259h-.272v.086c-.103.073-.015-.012-.091.086.116.035.159.132.363.085.179-.038.459-.289.82-.171v.086h.181v.085c.19.096.224.017.364.173.231.215.123.371.092.689h-.365v.516h-.091v.086l.638-.086c.069.235.021.197.272.257l.091.345c-.181.053-.078-.012-.182.086-.088.118.057.314.091.603.27-.079.251-.018.637 0v.258h.092v.086h.181v-.086h.455l.091-.172h.364c.055-.172-.012-.075.091-.172l.091-.086.091.258h.182c.296.148.614.19.819.431.274.314-.126.438 0 .773.059.16.388.351.546.432v.085c-.178.031-.182.086-.182.086h-.546l-.091.173-1.456.086c-.413-.005-1.437-.196-1.637-.086h-.182l.09.259.546-.087v.087h.455s.005.053.182.086v.172h-.272c.034.063.182.171.182.171l-.092.259h.092v.085c.105.045.246-.245.272-.258h.364v-.086c.326-.069.281.148.364.172.304.092.282-.137.364-.172h.364v-.086l.455.086.637-.688h.273v-.087h.091c.045.087.174.158.182.173l-.091.173h.091c.171.349.075.35.455.515.003.391-.009.643-.182.861l-.273.086v.087c.207.072.579.001.819.085v.085l.273.087c.226-.362.681-.49.91-.86h.454v.172l.638.086v.086c.102.074.013-.012.09.086-.138.05-.148.068-.363.086-.056.172.012.074-.092.172v.085h-.273c-.102.351-.221.188-.273.604-.121-.028-.242-.059-.363-.086.07.233.021.196.272.258v.087c.234.077.283-.224.364-.259l.273.086v-.086c.225-.18.074-.286.182-.431.107-.14.289.01.455-.086v-.087c.191-.153.058-.169.364-.257v.172l.546.43.091.259h.182v.086h.455l.182.258h.273l.091.173h.182v.085l.819.086c.053.196.078.21.182.344h.091v.259h.091c-.012.449-.132.567-.273.86l-.182.086v-.086c-.238-.023-.177.008-.273.086-.372.096-.102.044-.273.259l-.273.172v.258h-.091v.173h-.091c.053.249.046.42.091.774l.637.172v.345h-.455v.084h-.091c.066.226.143.278.273.431h.091l.091.345h.091c.105.129.13.15.182.345-.092.066-.089.105-.182.172v.085c-.29-.111-.605-.158-1.001-.171-.051.231-.093.323-.273.429v.086h.273v.087c-.211.092-.341.159-.455.344h-.091l.091.259-.909.086c-.061-.028-.063-.197-.182-.259-.05.112-.172.115-.274.173v.086c-.047.021-.895.179-.91.172v-.086h-.818c.136-.209.227-.123.273-.172a41.048 41.048 0 0 1-.091-.259h.091l.091-.946c.181-.052.078.011.181-.086h.092v-.258h.181c-.094-.254-.182-.264.091-.432v-.085h-.272l.091-.259c-.252-.072-.424.014-.728-.087l-.182-.859c-.061-.029-.122-.057-.182-.087l.091-.343c-.361-.099-.116-.027-.273-.259h-.091v-.172c-.091-.058-.182-.114-.273-.173v-.171h-.091c-.106-.177-.004-.19-.182-.345.023-.244.037-.313.182-.43v-.086h-.273l-.091-.172h-.364c-.12-.044.03-.045-.091-.086l.091-.344h-.273l-.091.172-.455-.087c-.155.307-.379.567-.454.946-.153.031-.304.058-.456.087l-.091.259h-.091v.172c-.061.027-.121.058-.182.085v.259h-.091l-.091.259c.061.027.121.056.182.086v.258h.273c.057.149.013.618.091.774l.273.173c.106.151-.001.195.183.343-.008.452-.275 1.034-.547 1.206-.103.096.001.035-.182.086-.199-.218-.613-.22-.818-.43h-.092v-.431h-.091v-.172h-.091l.091-.947h-.272v-.086l-.274-.086v-.602c-.181.028-.364.056-.546.086.055.171-.012.073.091.171l-.091.517h-.091v.429l-.364.259.182.345-.182.086v.173c-.046.079-.162.031-.181.172h.09v.172h-.182v.258h-.636v.086h-.182v.085h-.364l-.091.173c-.16.131-.297.206-.546.258-.056.208-.096.189-.182.345.248.135.367.283.728.343.069.234.021.197.273.259l.091.431c-.388-.044-.409-.185-.728-.259.09.259.182.517.273.775.094-.049.149-.154.182-.172h.182v-.086c.139-.036.181.086.182.086.151-.03.303-.058.455-.086.054.172-.013.073.091.172v.343h-.091v.086a21.427 21.427 0 0 1-.364-.086c-.1.2-.215.281-.273.517-.716.019-.446.04-.819.344v.087h-.182l-.091.171h-.546l-.091.173h-.182v.087c-.161.116-.18.138-.455.171-.056.217-.05.141-.182.258v.087h-.182l-.273.343-.182-.086v.258h-.091v.086a14.728 14.728 0 0 1-.363-.086v.344h.363c.031.087.06.174.091.259h-.182l.091.344c.198.042.258.055.364.173.248.065.207.02.273.258-.217.044-.284.101-.455.172-.05.112-.036-.024-.091.086v.258h-.091v.087c.122.028.243.056.364.086v.171c.929.008 1.766.043 2.457.259h.363c.271.093.341.272.638.343.103.406.246.342.454.604h.092v.43c.06.029.121.056.181.086l.274.774h-.819l-.091.173c-.334.029-.667.056-1.001.086-.055-.172.012-.074-.091-.173v-.086h-.092l-.181.345h-.182v.086h-.364v.085h-.273v.087h-.273v.085h-.819c-.011.004.019.056-.182.086-.108-.22-.265-.456-.455-.601v-.087c-.05-.062-.167.252-.182.259l-1.182-.086c.041-.332.148-.355.181-.689l-.455.086v-.43c.061-.03.122-.057.182-.086.044-.115-.036-.026-.09-.086l.09-.43h.092v-.173h.09c.025-.1-.172-.153-.09-.345h.09c.073-.125.068-.144.091-.343h.182v-.43c-.102-.074-.014.012-.09-.086h-.183c.07-.26.238-.405.455-.517v-.258h-.09c-.026-.128.09-.172.09-.172.021-.16-.09-.172-.09-.172-.04-.202.09-.259.09-.259l-.09-.431a30.588 30.588 0 0 1-.455-.086l-.092-.258h-.182v-.171c.328-.084.382-.289.637-.431v-.172c-.429.046-.511.216-.909.259v-.344c-.276-.071-.314-.162-.364-.431h.181c-.058-.204-.025-.162-.181-.259-.01-.469.057-.616.364-.775v-.086l-.729-.085v-.344h.182l-.09-.258c.244-.066.28-.142.454-.259v-.086h.364c.12-.046-.029-.043.091-.087-.196-.311-.368-.3-.364-.86.248.064.207.02.273.258h.183v-.258h.182v.688h.09v.086c.141-.06.186-.028.365-.086v-.085h.272l.364-.431h.091v-.258h.091l.182-.259h.273l.091.172h.273l.091.173h.182v.086h.182v.086l.455.086v.087c.215-.021.225-.037.364-.087v-.086l-.091-.086h-.546c-.001 0-.174-.206-.273-.259v-.687h.091v-.086c-.134.008-.364.086-.364.086s-.104-.138-.273-.086v.086l-.364.086a1.178 1.178 0 0 0-.364-.258c.027-.291.072-.399.273-.517-.154-.251-.27-.248-.273-.688.514-.004.69.076.91.343h.091c.215-.367-.277-.162.091-.43-.13-.406-.069-.104-.364-.258l-.091-.172h-.364v-.086h-.364l-.09-.173a47.672 47.672 0 0 1-.365-.257v-.172h-.091c-.122-.187.042-.125-.182-.259v-.086c-.155.069-.287.078-.545.086l.09-.259h-.09v-.171h-.183v-.345c-.262-.062-.301-.091-.364-.343h.273v-.087c.444-.312-.038-.118.091-.516l.091-.087c.152-.028.304-.058.455-.085v-.172c-.269-.066-.223-.14-.546-.173v.173c-.181.056-.364.114-.545.172v.085h-.091l.091.174c-.373.137-.714.203-.82.602-.043.06-.13 0-.091.17h.091l.091.259h.091v.517h.092v.431c-.103-.075-.015.011-.092-.086-.153-.099-.126-.052-.182-.259h-.181l.09.173h.091v.172h.091v.343h-.091v.087h-.091c-.062-.235-.123-.195-.181-.43h-.365c-.085.294-.193.221-.272.516-.473.049-.597.26-.91.43-.09-.271-.05-.129 0-.43l-.273.086c.013-.483.125-.856.273-1.206h-.091v-.085c-.286.128-.244.043-.546 0-.055-.172.012-.074-.091-.172-.075-.05.004-.107-.182-.087v.087h-.455v.086h-.728c-.139.061-.215.424-.727.258v-.087h-.183v-.085c-.182-.028-.364-.059-.546-.086v-.086a47.704 47.704 0 0 0-.364-.259.878.878 0 0 1-.364.345c-.141.138-.056.066-.182-.086-.307.031-.293 0-.363.257-.443-.018-.63-.093-.728.259h-.273v.086h-.091v.259a8.695 8.695 0 0 0-.274-.086v.086l-.181.086-.092-.258h-.636v-.087h-.273c.079.161.118.251.273.345-.068.262-.175.369-.455.43v-.173c-.248-.065-.207-.02-.273-.257-.349.041-.253.105-.546.172l-.091.344s.15.086.091.258h-.091c-.158.347-.146.23-.091.602l-.91.345v-.087h-.455v-.085l-.728.085v-.085l-.363-.087v-.086c-.154-.032-.161.081-.183.086-.254.052-.701.016-.818-.086h-.091c.03-.086.06-.173.091-.257h-.091l-.092-.517h-.09c-.07-.234-.022-.196-.273-.258l-.092-.344.274-.086v.086l.273.086v-.086l.272-.086.092.258h-.183c.059.203.026.16.183.258v.086l.272-.086v-.086l.273-.087c.089.109.2.09.273.173l.091.258.637-.086v.086h.364v.086h.091c-.031.257-.008.236-.182.345v.084c.281.14.398-.141.455-.17.121-.03.243-.058.364-.087-.054-.172.013-.073-.091-.172-.256-.164-.485.21-.637-.344-.459.002-.504-.053-.637-.344h-.182v-.172a32.65 32.65 0 0 0-.546-.086v-.086c-.248-.067-.207-.021-.273-.259h-.364c-.039-.327-.111-.327-.364-.43l.092-.516h.091c.086-.121.233-.192.181-.431h-.091l-.09-.258c.187-.252.378.052.455-.517-.456-.009-.467-.079-.455-.516-.103.073-.015-.012-.091.086-.214.116-.357.3-.455.516v.259c-.061.027-.122.057-.182.085l-.092 1.119c-.156-.15-.191-.541-.181-.86-.091-.028-.182-.058-.273-.085l-.091.516h.091c.03.086.06.172.091.256-.061.031-.122.058-.182.087l-.091.345h-.365v.086c-.634.029-.414.244-.727.517v.086h-.274v-.173c-.363-.048-.313-.107-.545-.258v-.087h-.637v-.085h-.273v-.086h-.364v-.086l-.273.086v-.086h-.273v-.087h-.819s-.031-.116-.273-.086v.086c-.078.014-.651-.17-.91-.086v.086c-.182.03-.363.059-.545.087v.689c.09.028.182.055.273.086.158.147.05.28 0 .429.219-.079.564-.092.91-.085l.09.258c-.517.144-.195.394-.454.603h-.183l-.273.343-.363-.086c-.092.115-.182.231-.274.344a103.3 103.3 0 0 1-.909-.172 1.22 1.22 0 0 1 .364-.259v-.17c-.177.032-.182.086-.182.086h-.546l-.091.171h-.273v.086h-.455l-.091.173-.364.085-.091.173-.091-.086h-.364v.172h-.546v.259c-.091.028-.182.056-.273.086v.086a96.28 96.28 0 0 0-.91.086v.086l-.364.085v.087h-.273c-.03.057-.06.115-.091.171-.091.03-.181.057-.272.086v.172l-1.092.259v.086h-.182v.086h-.274v.087h-.636v-.087c-.212.029-.425.057-.637.087v-.345c-.304-.127-.568-.252-.728-.516h-.182c-.048.113-.041-.027-.091.085v.345l-.273.172.091.345h-.091l-.091.343c.182.053.078-.01.182.086.102.098.039 0 .091.173-.139.05-.149.07-.364.086v-.172a12.388 12.388 0 0 1-.273-.087c.043-.186.058-.244.181-.343-.153-.184-.187-.047-.272-.345h.182c-.021-.359-.043-.302-.182-.517h-.091l.091-.344h-.091v-.085h-.273v.172c-.371.098-.094.057-.273.257h-.091v.087h-.182l-.728.775h-.181l-.183.171v.172c-.061-.027-.121-.057-.182-.086v.173h-.091v.172l-.182.086v.087l-.636.172c-.183.2-.365.4-.546.601h-.182c-.174.134-.136.429-.274.603-.034.045-.636.39-.727.431v.086l-.455-.258c.043-.213.089-.316.091-.604h.181c-.05-.497-.505-1.22-.818-1.463v-.086c-.123-.046-.38.175-.637.086v-.086h-.182l-.091-.171-.546-.086v-.086h-.091v-.431c-.032-.065-.123.007-.182-.258-.41-.053-.264-.15-.728-.173v-.171h-.182l-.091.344c-.151-.029-.304-.057-.455-.087l.091-.344a38.773 38.773 0 0 0-.364-.085c-.03-.058-.06-.116-.091-.172a9.544 9.544 0 0 0-.273.086l-.09-.431h-.092c-.196-.252-.216-.276-.091-.603-.273-.057-.546-.114-.818-.173.007.288.05.391.09.604.248.059.206.116.455.172l-.091.517c.671.279.41.228.637.86a45.92 45.92 0 0 0 2.093.345v.172h.182c.072.245.112.208.273.344v.086l.273.086v.173h.182v.43a36.37 36.37 0 0 0-.455-.086v.086c-.333.029-.667.056-1.001.086l-.364-1.034c-.207.026-.236.011-.364.086v.087h-.182v.086c-.165.033-.351-.113-.455-.173v-.086h-.545l-.092-.171a72.436 72.436 0 0 0-.454-.086c-.06-.328-.049-.299-.092-.603l-.909-.172c-.055.686-.237.291-.546.603h-.091v.258h-.092l-.09-.517h.09v-.086h-.09c-.11-.166-.156-.158-.182-.431-.152.03-.304.057-.455.086v-.515h-.273l-.091.258h-.273v-.087l-.455.087c.004-.247.032-.37.091-.516l.546-.086.091-.345h.091v-.345h-.091l.091-.173h-.182v.173l-.364.258v.173l-.182.172h-.182l-.091.173c-.182.028-.364.056-.546.086v.086h-.182v.086l-.364.086v.085h-.363l-.274.344c-.183.112-.409-.016-.637.087v.085l-.272.087-.183.258h-.364l-.364.431c-.165.087-1.153.068-1.455 0 0 0-.091-.147-.273-.086l-.091.171h-.455v.086h-.182v.086H31.3l-.091.173h-.273v.086h-.182l-.091.173h-.273a9.339 9.339 0 0 0-.091.172c-.291.094-.315-.159-.364-.172-.138-.038-.182.086-.182.086-.364.036-.356-.203-.637.172-.403-.042-.402-.171-.455-.517h-.182c-.021.01-.226.275-.363.259l-.092-.173h-.182l-.09.259c-.705.004-.911.058-1.548.086l-.091.258h-.636v-.086c-.155-.027-.156.08-.182.086h-1.001v.086c-.273-.03-.546-.057-.819-.086-.031.056-.06.115-.091.172-.182-.03-.364-.057-.546-.086l-.091.171h-.273l-.182.258c-.121-.028-.243-.056-.364-.086l-.091.172c-.349.122-.557-.197-.728-.258h-.545v-.086l-.274-.085v.085h-.272v.086h-.455v.086h-.274v.086h-.545v.086h-.182v.086h-.637l.09.259-1 .172v-.086h-.273v-.086h-.728v-.086l-.455.086v.086h-.091c-.03.144-.061.287-.09.431h-.183c-.055-.172.013-.075-.091-.173v-.085h-.364l-.091-.173h-.182v-.086l-.273-.086v.345h.091v.343h-.091v.086h-.455l-.091.174h-.182v.085h-.637a9.339 9.339 0 0 0-.091-.172h-.181l-.182-.258h-.183l-.091-.173h-.181v-.085a68.15 68.15 0 0 0-.546-.173v-.086h-.91s-.179-.209-.273-.259c-.056.111-.089.185-.182.259-.078.098.012.014-.091.086-.077-.16-.141-.224-.182-.431-.152.03-.304.059-.455.086v-.258c-.121-.028-.243-.056-.364-.086v-.086H7.916c-.289-.102-.234-.298-.727-.343-.151-.294-.378-.417-.456-.776-.274-.057-.344-.155-.546-.257l-.182-.861-.273-.173v-.515h-.09v-.345c-.047-.113-.047.028-.092-.086-.176-.032-.182-.086-.182-.086h-.545v-.086h-.182v-.087h-.455v-.085c-.204-.034-.348.178-.638.085v-.085h-.181v-.087h-.455v.087h-.455v-.087l-.455.087.182-1.033-.273-.086c-.055-.172.012-.074-.091-.173.216-.229.285-.04.546-.171.091-.115.181-.231.273-.344h.182v-.087l.546-.086c.091-.114.181-.23.273-.344.121-.028.242-.059.364-.086l.272-.345h.547v-.087h.09c-.028-.083-.202-.414-.09-.601h.09v-.086c.213-.028.425-.058.637-.085v.171c.213.056.425.114.637.172.057-.208.096-.19.182-.343.333-.001.489.006.637.171h.273v-.086h.091v-.085h-.091c-.071-.249-.145-.255-.364-.345.055-.173-.013-.075.091-.173v-.086c.163-.079.285.059.364.086l.092-.258h1.091v-.086h-.091v-.085h.091l-.091-.259h-.728v.086c-.435.003-.576-.051-.819-.172v-.087c.123-.04.154-.12.364-.086.013.003.036.114.183.086v-.086h.272v-.085h.091v-.43h-.273v.17c-.58-.026-.281-.089-.546-.343v-.086h-.091v.172l-1.82.087v.085c-.24.149-.221.162-.636.172v.086l.273.087v.43h-.091c-.01.448-.033.336-.182.602-.265-.006-.489.021-.637-.086l-.091-.172h-.183v-.086h-.272v-.085h-.182v-.087h-.273v-.086h-.182v-.086c-.092-.028-.182-.059-.273-.086v-.518c-.182-.027-.364-.056-.546-.085-.067.024-.019.243-.364.172v-.087c-.182-.027-.364-.056-.546-.085l-.091-.172H.637l-.091-.172H.273c-.099-.062-.077-.226-.273-.344.055-.172-.013-.074.091-.173v-.085c.255-.142.557.123.728.085v-.085c.344-.102.484-.174.91-.173l.091-.257c-.379-.022-.427-.114-.728-.172l.091-.259h.182l.182-.259h.091l.091-.43h.091c.114-.105 1.295-.415 1.547-.43v.173c.167.029.181.084.181.084h.82v.086h.181v.087c.011.001.625-.084.819-.087v.259l.546-.429c.176-.269-.162-.219.273-.345.092.296.304.284.455.515h.91v.087h.182v.085l.728-.085c-.015-.377-.108-.471-.364-.602l.273-.861v-.689H8.28v-.085h-.091v-.087h-.182v-.087c-.358-.181-.807-.128-1.183-.086l-.091-.257c-.281-.065-.509-.218-.637-.43h-.728l-.091.172c-.233.15-.177-.091-.273.258l-.545.086c-.128-.15-.349-.262-.547-.344.069-.226.145-.273.274-.431h.09c.121-.18.095-.487.092-.774h-.092v.258l-.454.086c-.1-.208-.173-.279-.182-.602-.481-.057-.581-.333-.91-.517v-.516c-.182-.051-.079.011-.183-.086-.274-.071-.313-.16-.363-.43h.363l-.09-.345c.155-.01.335-.09.364-.086v.086h.182c.076-.16.14-.224.182-.43h.91c.075-.03.061-.264.364-.172v.086c.143.068.218.072.454.086l.091-.258c-.151-.116-.303-.23-.455-.344l-.09-.258c-.061-.031-.122-.058-.183-.087v-.258c-.002-.008-.158-.073-.09-.257.06-.03.121-.059.182-.087v-.173h.273c.023-.392.129-.366.272-.603.334.031.668.058 1.001.087v.172c.122.085.243.172.364.259v.258h.091c.052.208-.028.187-.091.259v.256l.183-.085v.085h.181l.091-.428a6.068 6.068 0 0 0-.182-.087v-.432l.364-.257v-.258h.091v-.173h.091v-.171h.092c.086-.299-.148-.262-.183-.344v-.432l.546.087v-.172c-.221-.053-.2-.091-.363-.173.005-.045-.054-.355.09-.258v.087h.091a54.582 54.582 0 0 1-.091-.431c.448.029.387.173.728.258.104.39.834.703 1.274.775.037-.49.484-.658.728-.258.184-.147.076-.198.182-.344l.273-.173v-.172h.091l.181-.258s.561.083.274.086h-.091v.43h.091v-.086c.355.021.338.118.455.344h.091v-.429c.045-.115.049.027.091-.087.452.006.794.112 1 .345.248.065.208.02.273.258l.364.086-.182-.602h-.091v-.259h-.091c-.136-.158-.194-.208-.455-.259-.045-.222-.092-.379-.09-.687-.182-.052-.079.011-.183-.086h-.091l-.091-.862.091-.084-.272-.088-.092-.43a14.82 14.82 0 0 1-.181-.086c-.204-.214-.341-.285-.365-.687-.427-.033-.498-.149-.727-.346l-.091-.172c-.182-.028-.364-.058-.546-.085l-.728-.432c-.048-.235-.095-.444-.091-.775h-.455v-.085h-.182l.091.258c-.595-.012-.928-.172-1.456-.258l-.182-.517-.273-.086-.09-.43h-.092l-.091-.258c-.473-.009-.355-.03-.636-.173v-.258c.112.055.131.143.181.173.136-.027.149-.076.364-.087.069.235.022.198.274.259.068-.234.021-.196.272-.259.027.197.012.224.091.345h.091v.258l.274.173v.257h.09v.173c.028.041.126.071.183.172h.454c-.062-.235-.123-.194-.182-.43h.546c.055.171-.012.073.091.171v.087l.546-.087v.087h.182v.086c.22.162.272.304.637.344v-.258h.091c.053.132.072.14.091.343.181-.051.078.013.182-.085.404.038.455.198.455.602l.364-.257v.085h.091c-.193.266.026.354 0 .43h-.182v.086l.819.259-.091.259.545.085v.259h.091v.172h.091v-.085c.152.027.304.055.455.085l.091.171h.273c.066.337.067.352 0 .69.35.043.254.105.546.171v.174h.273c.031.084.061.17.091.257l.455.344v.086c.14.082.274-.031.364.086.091.12-.024.256.091.345h.182l.091.172h.364v.086l.546.171.091.431-.091.086h.091l.091.173c.091.027.182.057.273.085v.173l.364.086v.343c-.324-.002-.616.015-.819.087l.091.689h.091v.171h.091c.086.127.079.211.091.431.394-.035.361-.06.728 0 .03.114.06.231.091.344.22.053.2.092.363.172l-.09.432.364-.088v-.084c.09.026.182.056.273.084l.091.603h.09c.158.255.457.376.82.43v.259h.09c.126.427.242.233.547.43l.636.689h.092v-.258h.09v-.086c.243.027.486.057.728.086l.182.258h.273v-.086c-.091-.03-.182-.058-.273-.086-.055-.172.013-.075-.091-.172l-.091-.259h.091c.134-.21.285-.242.364-.516l-.819.086-.091.171h-.363l-.183-.257h-.182v-.086h-.181a14.391 14.391 0 0 1-.091-.173h-.274v-.086c-.128-.139-.151-.752-.09-1.031.003-.016.145-.032.09-.173l-.364-.259v-.172h-.09c.033-.291.066-.319.272-.43v-.087l.274.087v-.087h.091c-.119-.203-.417-.503-.637-.343h-.091c-.031-.145-.062-.288-.091-.43l.636-.087v.087c.092.027.183.057.274.085v.087c.151-.03.303-.058.454-.087.106.347.178.221.365.431h.09v.257c.352.041.376.141.728.173-.021.202-.038.212-.091.344.091.028.182.059.273.085v-.171h.182c.023.392.129.367.273.603h.091v-.258h.182l.091.172c.054.014.633-.165.91-.172l.091.429h.364c-.078.321-.249.333 0 .518v.258c-.139-.051-.148-.068-.364-.086v.172h-.273v.085h-.091v.689c.535-.113.295-.224.819 0v-.172l.455-.086v.258c.359-.18.586-.24.819.172h.09l-.09-.43c.151-.03.303-.057.455-.086v-.086h-.273v-.086h-.182v-.087h.637v-.171h.272v-.086h.091c-.03-.257-.008-.237-.182-.345l.091-.258c.434-.008.658.012.819.258h.092v-.343c.007-.014.137-.086.181-.172l.091-.087h.455v-.086h.182l.182-.259h.364v-.087c.212-.026.425-.057.637-.085v-.086c.129.001-.035.059.091.086h.273c.03.059.06.114.091.172h.455c.03.008.023.117.182.087V173h.273v-.087h.182v-.085h.182v-.086l.455.086.182-.259h.272v-.085h.182v-.086h.456c.549-.16.925-.175 1.183.258h.09v-.258h-.09c-.062-.337.276-.26-.183-.516.3-.433.652-.133.729-.172.029-.087.06-.172.09-.259.178-.183.437-.103.638-.086l-.092.345h.546c-.047-.259-.071-.475-.273-.603.085-.289.285-.394.455-.603h.092v-.258l.272-.086.183-.345c.28.001.466.026.636.086.056-.137.084-.204.091-.429h.273v-.086c.193-.152.054-.171.364-.259l.091-.43h-.091c.107-.349.184-.173.364-.431h.273c.043-.188.058-.243.182-.344.103-.096-.001-.036.182-.086a.98.98 0 0 1 .091.43l.273-.086v-.171c.329-.08.194-.154.637-.173l.09.258h-.09c-.009.397-.033.425-.455.43.086.13.178.146.273.259-.17.086-.352.19-.455.344l-1.274.086a28.91 28.91 0 0 0-.091.346c.216-.057.17-.026.273-.173.28.031.286.057.455.173v.085c.225.119.272-.029.455.171h.091l.091-.343h.182c-.026.296-.198.659 0 .86v.344h.091c.1-.242.174-.537.182-.861.317-.141.523-.313.909-.171v-.085h.092v-.346h.091v-.086l.363.086-.09-.516h.182c.056-.206.09-.194.181-.343h.092c-.017-.1-.176-.238-.092-.432.061-.028.122-.056.182-.086v-.43s.145-.102.182-.173h.364v-.257h-.091c.037-.275.058-.341.273-.431h.183l.09-.258.728-.517v-.602a7.517 7.517 0 0 1-.182-.087v-.43l.455.087v.43c.182.052.078-.012.182.085.215-.019.225-.035.364-.085v-.087h-.272l-.092-.343h-.091c-.039-.187.245-.395.273-.775.16.011.328.09.364.086l.091-.086v.086h.091l-.091.602h-.091v.087c.267-.151.246-.306.364-.603h.091a54.582 54.582 0 0 1-.091-.431h-.454l.09-.258c.122-.028.243-.056.364-.086-.075-.111-.062-.102-.182-.171.055-.172-.013-.075.091-.173v-.086l.455-.086c.053.132.073.14.091.345.278.064.391.165.455.43l.273-.087.091-.258c-.046-.018-.342-.073-.364-.085v-.087l-.364-.258v-.258h-.182l-.182-.517.091-.086h.182l.091-.172h.091l-.091-.43.273-.086v-.172h-.273l.273-.775c.276-.073.247-.144.455-.257v-.087l.273.087c-.043.186-.058.243-.182.343v.086l.273-.086.091.172h.273v.086h.09l.092-.258-.273-.086c-.006-.404.018-.528.364-.602v-.086c-.216.056-.171.024-.273.172-.215-.021-.226-.037-.364-.086.055-.406.283-.415.454-.688h.364v.086h.091l-.091.171h.182c-.005-.144-.093-.329-.091-.344l.183-.086.091-.344c.306-.01.333.003.455-.173h.09c-.071-.124-.074-.164-.181-.258v-.086h.364v-.172h-.183v-.43c.164-.082.142-.123.365-.172v-.086h-.365c.071-.088.112-.085.183-.173-.14-.05-.148-.068-.364-.086-.022-.352-.131-.476.091-.688v-.087c.153-.052.162.082.181.087h.364v.086l.546.086v-.086a1.21 1.21 0 0 0 .455-.086.585.585 0 0 0-.273-.258c.075-.111.062-.104.183-.173v-.086h.09v.086h.546v.087c.225.034.427-.151.728 0v.086c.146.097.156.116.364.171v-.344h.091c.245-.289.309.017.182-.43l.272-.086v-.086h.183v-.086l.546.086v-.171h.182c-.011-.29.004-.317-.182-.432v-.086h.09v-.085c.122.028.244.058.365.085l.091.259c.215-.021.225-.037.364-.086-.059-.204-.026-.162-.182-.258.074-.262.17-.297.455-.345v-.172h.273v-.345c.151-.114.303-.228.454-.344-.038-.327-.112-.327-.363-.43.077-.254.401-.389.363-.602l-.09-.086c.214.02.224.036.364.086v-.086h.091c-.109-.436-.401-.591-.182-1.119h-.183c-.036.082-.053.273-.09.344l-.182.086c-.047.114.039.03.091.085l-.091.346c.182-.053.078.011.182-.087h.09c-.035.279-.082.251-.181.431h-.182l-.182-.258c-.182.027-.364.058-.546.085v-.085c-.182.027-.364.058-.546.085v.087l-.546-.087v.087h-.182v.086c-.151.027-.303.058-.455.086l.091-.861.182-.086c.242-.358.521-.655.546-1.206h.181l-.09-.429h.273v-.603c-.182.052-.079-.012-.183.086h-.09v-.603h.182v-.171h-.182l.09-.947h.092c-.03-.086-.06-.172-.092-.258h-.09v-.689h.09c-.029-.173-.06-.344-.09-.516h-.091c-.067-.207.104-.333.091-.43h-.091c-.073-.288-.152-1.384-.091-1.464-.002-.271-.138-.16-.182-.259-.1-.221-.001-.851.091-.946-.02-.639.039-.905.455-1.118v-.174h-.092c-.059-.098-.14-.232-.09-.429h.09v-.43c.007-.026.117-.027.092-.173h-.092c-.117-.477-.042-.791 0-1.205h-.272v-.172h-.091l.091-.343h.091v-.173l.181-.086v-.173h.092v-.258l.182-.085v-.346l.182-.085.091-.947.273-.085c.054-.173-.013-.074.091-.173.069-.235.021-.196.273-.259v-.688l.546-.086v.345h-.091v.085h.364v-.085h.182c-.153-.272-.289-.551.091-.776v-.171l-.456.258c-.077-.097.013-.014-.09-.087.003-.209-.027-.417.09-.517h.183l.182-.256c.151-.03.303-.058.454-.086v-.086h.092v-.259l-.364-.086a34.727 34.727 0 0 1-.091-.345c.099-.075.391-.412.455-.516v-.172l.181-.086v-.259h.091l.092-.344.273-.086.182-.171v-.172c.06-.03.121-.058.181-.087a40.87 40.87 0 0 0-.091-.258l.455-.258v-.087h-.09l.09-.431h-.09v-.343h.09c.316-.255.38.137.729 0l.09-.173h.183v-.086l1-.172.091-.516h.091v-.085c.191-.065.219.095.273.17.4-.1.244-.206.455-.428.091-.059.182-.117.273-.173.03-.087.061-.172.09-.259h.183l.182-.258h.091v-.516h.091v-.172h.091c.069-.197-.06-.211-.091-.258l.091-.258h.091v-.259h.09v-.171l.365-.259v-.344l.364-.259c.188-.289-.144-.36 0-.688.06-.03.121-.057.182-.086l.091-.431c.363-.098.114-.028.273-.258h.091v-.172l.364-.172v-.171c.212-.059.424-.116.636-.173v-.173c.092-.028.183-.056.273-.086l.456-.688-.092-.517.182-.086.092-.517h-.092l.092-.602h-.092v-.258h-.09v-.173c-.077.137-.617-.006-.911 0 .128-.431.246-.227.546-.429l.547-.689h.272v-.259l.091-.085h.455l.091-.173.364-.085.182-.258h.182l.182-.173v-.172l.364-.258c-.044-.256-.113-.262 0-.515h.091v-.346h.091v-1.032s.225-.181.273-.259h.273l.091-.344c.374-.097.352-.258.546-.517l.273-.171c.18-.239.104-.339.455-.431l.182-.517h.091v-.43h.091v-.085h.272v.257c.092.03.183.057.274.086.062.347.037.315 0 .689-.248.065-.207.02-.274.259-.602.164-.163.191-.363.515-.093.152-.459.193-.638.259l-.09.258h.09l.092.431-.364.257.091.603c-.061.028-.121.059-.182.086v.173h-.091v.259c-.091.055-.182.113-.273.171v.43h-.091v.172h-.091v.258h-.091l-.091.43c-.01.019-.135.087-.182.173h-.273l-.091.516h.091c-.033.313-.071.367-.364.431-.057.618-.15.233-.364.515-.172.229-.185.719-.182 1.12-.436.123-.085.101-.273.345-.087.111-.243-.002-.364.085v.086h-.091c-.144.238.153.439.091.603l-.182.085-.182.517c-.151.03-.303.058-.454.086-.027.194-.01.226-.092.346h-.09v.171h-.092v.172h-.091v.345l-.182.085-.091.431c-.061.029-.121.056-.181.086v.171l-.274.173c.014.209.182.774.182.774h-.09v.087c.802-.015.625-.295 1.183-.431l.09.259c.182.027.364.058.546.085.027-.592.118-.366.364-.689h.091l-.091-.774.182-.086.182-.516h.182c.017-.446.251-.922.455-1.205.091-.057.182-.116.273-.172.154-.247-.14-.109.182-.344v-.086h.273v-.259h-.091l.091-.43.637-.172c.014-.22.006-.3.091-.43h.091v-.259h.091l.182-.259h.455l.091-.515h-.091c.09-.342.317-.404.637-.516l.091-.518c.408-.001.498-.056.727-.171v-.173h.182c-.068-.318-.177-.401-.454-.516 0-.266.026-.442.091-.602h.363l.092-.344a.743.743 0 0 0 .363-.173v-.086l.273-.086c.178-.197-.097-.156.273-.258.056-.222.574-1.098.728-1.205h.182v-.086l.364-.258v-.344l.365-.173v-.172l.181-.086v-.258c.091-.057.182-.114.273-.173v-.258h.091v-.172h.091v-.172c.061-.029.121-.058.182-.085v-.172c.091-.06.182-.116.273-.173v-.173l.182-.085.091-.43.182-.087v-.602c.061-.029.122-.057.182-.087.08-.134.17-.537.091-.773-.102-.306-.309-.358-.364-.776h.182c-.061-.222-.094-.247-.273-.344l.182-.775c.091-.029.182-.056.273-.086.079-.388.214-.471.455-.688l.091-.172h.181l.092-.173h.182v-.085h.273c.126-.082.004-.216.091-.345h.09l.092-.172h.181l.092-.171h.181c.082-.06.074-.179.183-.259v-.173c.369-.101.182-.174.455-.344v-.172h.728v-.085h.181v-.087h.364l.456-.516.363-.086v-.087c.091-.027.182-.058.273-.086l.091-.172h.274v-.086h.181l.182-.258.819-.259h.455v-.086h.182v-.086c.152.029.303.059.455.086l.091-.257c.391-.02.308-.054.546-.172v-.173h.182v-.172l.637.086.09-.172c.264-.097.552.057.728.086l.091-.257.82-.087v.087l.272.085.092.172h.909v.086h.273l.091.173c.252.064.207-.148.274-.173h.818v-.086h.182l.364-.43h.364l.455-.517h.091v-.344l.182-.087v-.085h.182c.27-.195.085-.394.546-.516.095-.391.363-.312.637-.517v-.086h.091a14.168 14.168 0 0 1-.091-.171h.091v-.087l.546-.173c.004.002.039.145.181.087l.092-.172h.273l.09-.173.546-.172v-.258c.169-.057.524-.147.819-.086v.086l1.274-.26v-.085c.332.033.388.069.456.345h.454l-.091-.086v-.429h-.091v-.346l.273-.085c.03-.059.061-.115.091-.172l.364-.259v-.173h.091v-.171h.091v-.258c.06-.03.121-.057.182-.086v-.259c.061-.028.121-.057.182-.087v-.171l.364-.258v-.172l.182-.086v-.259h.091v-.257h.091l-.091-.087c.011-.212.056-.167.182-.259-.07-.233-.022-.195-.273-.258-.055-.171.013-.074-.091-.171.008-.588.036-.367.364-.604.098-.069.157-.259.273-.343v-.086h.273c.086.354.226.331.091.688.181-.052.078.013.182-.085h.182l.364-.69c.151-.029.303-.056.455-.086v-.17c.283-.055.382-.081.454-.346h.091a83.8 83.8 0 0 0-.091-.431h-.091c.022-.191.006-.229.091-.344h.091v-.172h.091v-.086h.091v.602c.513-.135.177-.246.364-.602.006-.011.139-.085.182-.171.369.095.198.209.637.257.055-.172-.012-.073.091-.172.179-.156.544-.072.728 0l.273-.688.637.086c.023-.358.12-.404.182-.688l.455.086v.086c.225.182.043.204.455.257-.018.369-.061.356-.273.517v.086h-.273v.086c-.102.098-.039 0-.091.172.113.045.226.032.364.086v.086h.273v.087c.091.056.182.116.273.171v.258l.455.259v.086c.163-.082.141-.123.363-.172.086-.299.237-.321.273-.689h.182l.092-.344c.283.056.406.148.727.172v-.344h-.273c-.043-.187-.058-.243-.182-.344v-.516h.092c.092-.327.254-.377.545-.517v-.086h.456v-.087h.09v-.344l.091-.602h-.091l-.09-.516c.06-.029.121-.057.181-.087-.008-.393-.061-.485-.455-.516a.602.602 0 0 1 .274-.258l-.092-.517h-.09c-.029-.141.087-.154.09-.172.035-.168-.126-.771-.182-.86-.09-.058-.182-.114-.272-.173.041-.44.337-.65.727-.515-.087-.293-.285-.39-.455-.604h-.09v-.258h-.092l-.09-.343c-.182-.03-.365-.059-.547-.086v-.086h-.181l-.273-.346h-.092c-.165-.297.16-.275-.181-.516.105-.167.126-.204.363-.257v-.173h-.636v-.258H105c-.066-.486-.423-.448-.637-.775h-.273v-.171h-.182c-.006-.125-.091-.345-.091-.345h.091v-.172h.091v-.431c.004-.011.056.018.091-.172a1.16 1.16 0 0 1-.273-.344h-.273l-.182-.774.182-.087.091-.344h-.273c-.074-.277-.208-.33-.455-.43.067-.449.215-.244.273-.689h-.182a26.455 26.455 0 0 1-.091-.258h-.091l.182-.517h.182v-.344c-.272-.029-.25-.007-.364-.172-.103-.073-.014.012-.091-.086.388-.08.535-.277.819-.431.078-.096-.012-.013.091-.086v.086l.273.086c.084.065.069.178.182.26v.085h.091v-.431h-.364v-.086h-.091v-.257c.182-.053.078.012.182-.088-.315-.17-1.164-1.001-1.365-1.29l-.273-.774c.1-.076.022.015.091-.087v-.086l.273-.171c-.019-.105-.168-.228-.091-.431.063-.165.401-.356.273-.689l-.182-.086v-.344l.819-.43.091-.258h.182v-.087c.091-.056.182-.113.273-.172v-.172l.273-.171v-.259l.637-.43.091-.345.728-.603v-.171l.181-.086v-.173c.092-.057.182-.113.274-.172v-.171l.181-.087.092-.516.272-.172v-.603h.092l.09-.345h.092v-.601h.09V65.5h.091v-.172h.091v-.516c-.048-.052-.14.026-.091-.086l.274-.173v-.171c.013-.02.126-.098.181-.174h.091c.124-.227.015-.5 0-.772.198-.041.258-.057.364-.174h.091l.091-.516h.091c.081-.127.085-.212.091-.432h.182c.091-.434.191-.803.182-1.375h-.182c.026-.172-.01-.256.091-.345h.182v-.085h.091v-.172h.091l.091-.346a7.47 7.47 0 0 0 .182-.086v-.172h.091v-.172h.091l.091-.431c.091-.027.182-.057.273-.085l.091-.173h.182l.273-.344h.182v-.086c.206-.163.339-.356.637-.429v-.173l.546-.172.091-.172h.273v-.087h.273l.09-.172h.274l.091-.173c.121-.028.242-.055.363-.085l.092-.171.455-.088.09-.171h.182v-.086h.182v-.086h.273v-.086c.314-.245.028-.08.182-.345l.182-.085v-.258l.455-.345.091-.259.182-.085.091-.947c.257-.813.179-1.84 0-2.668-.046-.219.17-.479.182-.86h-.182l-.091-.432h-.091l-.091-1.979a21.616 21.616 0 0 1-.272-.086c.002-.253-.016-.461.09-.602l.182-.087-.364-1.291v-1.118h.092l.09-.516h-.09l-.092-.517h-.091c-.088-.274.126-.434.091-.603h-.091v-.258h-.091a.232.232 0 0 1 .091-.26l-.091-.772-.272-.087.09-.86c-.06-.03-.121-.058-.182-.087v-.689h-.091v-.172h-.091v-.429h-.091v-.172h-.09c-.25-.691.524-.839.363-1.465h-.091v-.773c-.06-.031-.121-.058-.182-.086l-.09-.517h-.092l.273-1.119h.091c.03-.145-.086-.15-.091-.172v-1.722c-.369-.101-.181-.174-.455-.344v-.43c-.018-.12-.107.034-.09-.086 0 0 .245-.044.181-.258-.06-.029-.121-.057-.181-.087v-.258l-.274-.172v-.774h-.09v-.174h-.091l-.274-.773h-.091v-.172h-.09c-.115-.34.158-.373.181-.43l-.091-1.034c-.06-.028-.121-.056-.181-.087v-.171c-.061-.029-.122-.057-.182-.087-.089-.175.026-.445-.092-.602l-.363-.171.182-.775c-.474-.008-.355-.031-.637-.173v-.172a7.47 7.47 0 0 0 .182-.086s-.162-.374-.091-.516l.273-.172c.184-.375-.233-.545-.182-.775h.091v-.172h.091c.038-.116-.032-.012-.091-.086.003-.122.056.031.091-.086v-.516h.091v-.173h.091l-.091-1.032h-.273c-.032-.16-.091-.172-.091-.172v-.603h-.091l-.273-1.119h.091v-.602h.091l.091-.43h.364c.061.259.164.326.273.516h.181v-.086c.19-.154.057-.174.365-.258-.079-.442-.075-.186-.273-.431h-.092l.092-.431c.022-.363-.258-.849 0-1.118-.015-.05.06-.255-.092-.172 0 0-.003.176-.09.086-.091-.093-.24-.449-.273-.602h.182c.012-.444.132-.492.273-.776-.216-.118-.371-.243-.637-.343.034-.291 0-.278.273-.344-.055-.172.012-.075-.091-.172v-.087c-.152.028-.304.057-.455.087.069-.235.021-.196.273-.259v-.086l-.273-.086.091-.861-.182-.086v-.431h.273l-.091-.343h-.091v-1.119c-.216-.056-.171-.024-.273-.172h-.091v.343h-.364v-.258h-.364c.074.113.062.103.182.172v.259c-.191-.149-.153-.271-.455-.344l.091.43h-.183v.085l-.727-.258a.597.597 0 0 1 .273-.257c-.128-.446-.444-.442-.455-1.033h.182l-.091.343h.455v.173h.091c-.059-.205-.025-.16-.182-.258.022-.204.038-.213.091-.344h.546v.258c.22-.004.444.026.546-.087v-.171a7.47 7.47 0 0 1 .182-.086l-.091-.344c.06-.03.121-.058.182-.087-.143-.233-.232-.156-.273-.516.182-.053.079.012.182-.087h.091l-.091-.258c-.221.053-.2.092-.364.171v-.084h-.091v-.259h.091V8.695h.091l.091-.259h-.182l-.091-1.119h.273v.257c.116.055.194.085.273.174h.091c-.203-.349-.261-.245-.182-.689-.215-.02-.225-.036-.364-.086l-.091-.086v-.43h-.091c-.122-.242-.179-.321-.182-.688.303-.026.576-.091.728-.259h-.182v-.258c.247-.136.165-.219.546-.26v-.085c-.273-.056-.413-.164-.637-.259.043-.666.266-.283.455-.601v-.345h.091v-.086h-.364v-.343c-.248.059-.206.116-.455.171v-.086h-.091c.105-.167.126-.205.364-.258v-.086c.141-.021.12.157.182.172l.182-.086.091.173h.182v-.345h.091v-.087l.364.259v-.086h.091v.259h.091c.078.117.073.148.091.343h.091v-.172c.338-.049.207-.05.546 0v-.171c-.218-.057-.203-.089-.365-.173v-.086l-.272.086c-.007-.286-.051-.389-.091-.603h-.182v.259c-.4-.032-.298-.037-.637-.086l.091-.431h.091l-.091-.344.182-.086-.091-.085V1.38c.138-.047.144-.084.364-.087l.091.087v-.087h.091v-.086h.091a41.048 41.048 0 0 1-.091-.259l.636-.259V.518h.183l-.091.343c.181.053.078-.01.181.087h.183V.861c-.111 0-.153-.239-.092-.343h.092c.223-.349.517-.236.727-.518.294.034.266.08.455.174v.946h.091v.26h.091v.344h.092v.085h-.092v.172l1.183.172v-.085h.273l.364.688 1.092-.086c-.094.376-.321.432-.364.861l-.455-.087v.087c-.181.051-.078-.012-.182.085.122.029.243.059.364.086-.016.197-.074.58-.182.69v.085l-.273-.085c.09.289.109.165.273.342h.091l.091.518h.091c.132.163.246.208.364.344h.182c-.017.471-.092.391-.455.516.009.284.022.388.182.517v.086h.091v-.086c.201-.121.315-.341.364-.603.431.051.524.269.818.431.056.172-.012.074.092.172v.517h-.092v.084l-.272-.084c.042.186.058.243.182.343.069.235.022.197.273.259.121.403.401.346.455.86.368.05.408.179.636.345v.086h.274l.091.172c.157.132.298.207.545.258.057.209.097.189.183.345l-.455.256s-.034-.073-.182-.084v.084l.273.087c.055.495.107.538-.091.948-.142.052-.274.027-.456.086v.086h-.454l-.091.258h-.092c-.148.15-.187.205-.454.258-.054.198-.08.209-.182.344h-.091c-.126.212.028.257-.182.43.022.329.076.539.273.689.091.029.182.057.272.087v.257c.315.077.589.363.729.602h.182l.09.345c.444.078.62.025 1.093 0v.43c-.182.051-.078-.011-.182.087h-.092c.073.244.112.209.274.344v.085c.09.03.181.058.272.087v.172h.092l-.092 1.118h.092l.272.776h.091l.182.258.456.086.09.258c-.135.046-.298.129-.546.086-.009-.001-.035-.143-.182-.086v.086h-.091v.087c.117.053.195.083.273.172.435.002.577-.051.819-.172v-.345c.39.018.375.057.546.258h.091v.259h.091v.344h-.091l-.091.257h-.454v-.343c-.479.052-.701.279-1.093.43l.092.861h-.455v.086h-.092l.182.344h.092v.172h.09l-.09.344h.09v.173c.019.029.131.083.183.172h.181l.091-.259h.364v-.086h.091l.091-.43h.819c.011-.002.035-.142.182-.086v.086c.392.02.309.054.546.172v.258c.292.074.322.222.546.345l.091.861-.091.258h.091l-.091.515.182.087.091.516c-.292.074-.322.221-.546.344.009.449.033.338.182.603h.182c.071-.276.25-.452.546-.516-.059.204-.026.162-.182.257v.087c.337-.112.663-.025 1.001.086h.273v.086h1.092v.086h.364v.086h.455l.091.173h.363v.086h.182v.086h.455v.086h.182l.091.173h.182c.031.055.061.113.092.171l.272.086.091.43.273.172.091.431.273.172v.344h.091v.173c.06.027.121.057.182.086.197.308.154.613.091.945-.322.036-.357.12-.637.173-.069.236-.021.197-.273.259-.052.409-.2.485.182.688-.064.486-.248.339-.455.603l-.091.259h-.182v.085l-.364.258v.257h-.091c-.16.297.047.319-.364.432.031.113.061.229.091.344h-.091l-.091.43c.182.053.079-.012.182.086.256.237.198.898.183 1.377h.181v-.086c-.161 0-.091-.373-.091-.516 0-.541-.024-.956.273-1.204.111-.359.15-.203.455-.345v-.086h.364l.455-.517.546-.086c.031-.056.061-.115.091-.172h.546l.091.172c.55.206.83-.389 1.365-.172l.091.172.819.258c.056.194.076.214.181.345h.091l.092.344h.09l.091.516c.061.03.121.057.182.086v.087l.183.085v.173l.363.257v.173h.091c.105.175.001.192.183.343.008.361.056.457-.183.604.034.291.001.277.274.344.057.196.078.21.181.344h.091v.259l.182.085.182.603.364.086v.173l.273.085c.099.436.18.459.182 1.034.346-.037.346-.106.455-.345.312.083.169.109.364.258v-.086h.091l-.091-.946-.182-.086v-.173l-.182-.086v-.172h-.091l-.091-.259h.182a.688.688 0 0 0 .182.345h.091v.172l.182.086v.258h.091v.344h.091v.258h.091v.259h.091v.259h.091v.258h.091c.088.208.066.511.182.688l.182.086v.172l.364.259v.172l.455.344v.086l.273.087.091.516c.061.028.121.056.182.086.03.091-.14.352-.091.601h.091c-.003.114-.154.216-.091.432h.091v.688c-.182.053-.078-.012-.182.086h-.091c-.096.16.062.361.091.431h-.182v.257h.091l.091.257h-.091l-.091.431h.091v.087c-.046.081-.239.012-.182.259h.091v.172l.182.086c.126.241.032.388 0 .603.207.081.353.152.637.172.106.378.347.322.637.516l.272.344h.273l.092.171h.272v.087h.182v.086h.182v.087c.091.058.182.113.274.171v.345c.212.028.424.056.636.087v.085c.108.02.166-.17.364-.085l.182.257.91.086c-.076.271-.209.312-.272.603.206.025.235.011.363.085v.087h.182v.086c.087.019.252-.17.455-.086l.091.172h.182v.086h.364v-.086l.637.086-.091.43h.273c.056-.209.096-.189.182-.345.255-.001.605-.04.727.087.102.106-.066.1.183.258v.431c.454.041.536.127.636.516h.092c.008.137-.161.108-.183.172l.091.258h-.091c-.052.214-.084.541 0 .689.122.086.243.173.365.258l.091.689.181.086c.222.236.436.432.456.86.434.127.096.077.273.344l.454.345v.173c.092.056.182.114.273.171v.173h.091v1.29c.075.184.543.583.728.689-.056.201-.084.2-.181.344h-.092v.344h.092c.023.162-.092.173-.092.173l.092.603.272.171v.258h.091l-.091.517h.091v.345h.091c.082.28-.129.688-.182.86v.946h-.091l.091.948h-.364l.092.258c.09.056.181.115.272.171.087.182-.086.244-.091.345h.091v.172h.091c.07.235.021.196.273.258l.091.517h.091l-.091.43c.598-.056.421-.255.728-.516l.182.516.182.086v.259c.091.056.182.114.273.172l.091.687h.091v.26l.273.171.273.776.364.258v.086h.182c.09.115.182.228.273.343.151.03.303.058.455.086l.546.689h.091l.09.431.182.086v.258h.092v.172h.091l.182.516h.09v.259h.091v.172h.091c.083.218-.091.535-.091.602v.086z"/><path d="M118.557 147.954h.091v-.172h-.091zm4.731 12.566v-.258c-.168-.073-.237-.133-.455-.172-.056.38-.23.376-.273.774.462-.06.337-.245.728-.345m-2.729 2.927h.09v-.258h-.09l-.182.344c.182-.052.079.013.182-.086m-3.003-1.893c.12.059.243.115.364.173v.344h.09v.086h.092v-.69l-.182-.085c.013-.121.085-.145.09-.344h-.363v-.087h-.091zm-.728-1.636l.272-.171c0-.311-.017-.539-.18-.688v-.087c-.092.028-.183.057-.274.087 0 0-.176-.209-.273-.259-.078.096.012.012-.09.086.031.579.322.673.545 1.032m-4.549-14.717h-.182l.09.861h.092c.094-.265.01-.456 0-.86m1.273 11.447c.151.027.304.058.455.085v-.171c-.245-.05-.342-.09-.455-.26h-.09l.09.346m-1.092 6.196c-.101-.073-.013.013-.09-.086 0 0-.355.013-.183.086h.092v.086c.181-.052.077.013.181-.086m-.545 1.807h.09c.07.233.023.195.274.26v-.346c-.102-.073-.014.012-.091-.086-.182-.05-.078.013-.182-.086h-.091zm-.182-8.606c.09.028.181.058.272.085.16.565.81.602 1.093 1.034h.181c.079-.098-.011-.014.092-.087-.054-.466-.277-.535-.547-.774l-.09-.173h-.183v-.085c-.202-.12-.124.034-.273-.172l-.546.086zm.091-8.951c-.202-.291-.672-.342-.91-.603h-.182v.086c.253.105.464.146.546.43-.152.029-.303.059-.455.087v.086h.182v.086l.546-.172v-.087l.273.087m-1.365 18.676c.448-.029.387-.174.728-.258v-.26h-.273v.087c-.261.004-.39.031-.546.086.022.203.039.214.091.345m-19.835-42.949c-.176.106-.227.198-.273.431h.182v-.345h.09zm14.739 21.604h1.547v-.086c.226-.14.172-.144.546-.172.072.248.145.254.364.344v.087c-.36-.046-.534-.204-.637.172-.258.022-.332.035-.455.173h-.09v.086l.818.085v-.085h.182v-.086h.728c.221.252.546.39.728.688h.091l-.09-.602c-.092-.03-.183-.06-.274-.086a11.404 11.404 0 0 1-.09-.26s.157-.106.09-.258l-.273-.172c-.06-.137.09-.164.091-.172l-.09-.26c-.39-.008-.603-.014-.82-.17l-.09-.171c-.213.028-.425.055-.638.086l-.09-.173a51.59 51.59 0 0 0-.547.087v.086c-.464.14-.672-.242-.91-.086a1.227 1.227 0 0 1-.455-.087c.065-.238.176-.314.274-.517l-.365-.258v-.173l-.272-.171-.092-.172h-.182l-.09-.172h-.274v-.087h-.273l-.09-.172h-.183v-.087h-.18v-.086c-.305-.027-.608-.056-.91-.085a.935.935 0 0 0-.729-.688v-.087h-.364v-.086h-.728v.086h-.09v.087h.272v.172h-.273c-.055.173.013.073-.09.173v.085c-.17.089-.383-.058-.456-.085l.091.514c.217.047.285.103.455.174l.273.687v.259h.091v.086h.273c.001-.508-.098-.521-.455-.688v-.431h.728l.091.172h.182v.087c.09.029.182.056.273.086.1.34.031.11.272.258v.087h.183l.273.343.91.086c.106.349.184.172.363.43h.637v-.086c.215.02.226.037.364.087a1.073 1.073 0 0 1-.09.43h-.365v.17c.331.097.163.084.365.26v.086l.455.086.09.172m-.454 1.205h.09v-.258h.092c-.056-.21-.096-.19-.182-.344h-.182c-.078.096.013.014-.091.086.048.363.129.28.273.517m-1.456 3.097h.546v.086c.392-.02.309-.053.546-.171-.056-.21-.096-.188-.182-.344h-.182v.172c-.325.004-.492.047-.728.085zm-9.553 5.94v.345h.09c.126.176.24.179.455.257.258-.41.554-.581.545-1.291-.109-.002-.363-.086-.363-.086l-.09.172c-.193.059-.26-.052-.365-.086-.09.271-.05.13 0 .431h-.182v-.259h-.182l-.09.43.181.087m-3.639-4.906h.182l.182.172.09.259c.122.028.243.056.365.087l.09.17.364.086.183.259.455.085v.087l.273.085c.06.087.12.173.182.259h.273l.09.259.182.085v.43h.09v.087c.153-.03.305-.057.457-.086v.086c.15.09.148.123.363.172v.259h.09c.056.17-.011.073.092.172l.09-.258-.09-.087h.09c.079-.097-.011-.013.093-.086l.09.259s-.138.084-.09.258h.09v.17l.637-.17v.086l.455.085.182-.257c.248-.068.205.143.273.172h.182c.06-.172.12-.344.182-.517h.09v-.344h.092v-.172c.06-.03.12-.058.182-.086.13-.134.215-.315.364-.431v-.086c.212-.03.424-.057.637-.086v.086h.273v-.086c.372-.292-.126-.183.09-.602.053-.1.42-.288.547-.343a1.123 1.123 0 0 0-.183-.174v-.43c.06-.028.122-.06.183-.086l.09-.69.547-.085.273-.344h.273l.09-.172h.092v.086h.09v-.086h.819v-.086h.183v-.086h.727l.183-.26c.287-.126.825.146 1.09.174.06-.216.048-.141.183-.26v-.084h.182c.064-.042.059-.115.182-.173v-.172h.455c-.026-.733.027-.994.546-1.205l-.091-.258a5.86 5.86 0 0 0-.182-.085v.085c-.238.024-.177-.008-.273-.085h-.091v-.087h.09v-.172h.092l-.091-.26a1.21 1.21 0 0 0-.455.087v.173l-.455.086v.086a28.631 28.631 0 0 0-.273-.086v.258h-.091c-.103.097 0 .037-.182.086a40.87 40.87 0 0 0-.091-.258h-.182c-.078-.262-.216-.328-.363-.517h-.092l-.091-.775h.09l-.09-.86c-.295-.115-.486-.18-.637-.431-.22.215-.33 1.11-.455 1.464-.181.052-.078-.012-.181.085h-.456l-.09-.258-.455-.258c-.078.098.012.014-.091.086.068.457.787 1.197.546 1.809h-.092v.17c-.06.03-.121.058-.182.087-.08.178.118.374.092.43h-.092c-.104.35-.236.307-.545.43h-.274l-.272.432c-.33-.038-.306-.075-.455-.26h-.092v-.344c-.083-.12-.23-.003-.363-.086-.156-.096-.207-.428-.273-.602-.15-.012-.182-.086-.182-.086-.101-.021-.175.179-.364.086v-.086c-.223-.206-.198-.692-.182-1.118-.221-.054-.2-.092-.364-.172l.09-1.291h.092v-.172h.09v-.776h-.09v-.172l-.182-.086-.182-.516h-.091v-.432h-.091c-.114-.147-.246-.21-.364-.342-.414.02-.388.12-.636.257l-.092.774H94.9v.603h-.091v.259h-.091v.43h.09l-.09.173h.09v.429h.092l.09.689h.093v.173c.06.027.12.057.18.086.062.257.123.516.183.775h.09c.088.187.087.333.092.6-.458-.108-.547-.502-.728-.86h-.273c.023.466.132.537.364.775.06.03.122.056.182.086l.09.43h.092l.182.517h.09c.106.129.13.15.183.345h.273v-.173h.182v.258c.33.107.467-.004.728.086h.273v.086c.153.099.126.053.182.259.515-.062.596-.324 1.183-.345v.259h.273v-.173c.152-.03.303-.057.455-.086-.055.408-.285.497-.455.775a90.473 90.473 0 0 1-.73-.087v.689h-.09v.086a28.631 28.631 0 0 1-.272-.086v-.086h-.182v-.086l-.82-.086-.09-.172c-.243-.03-.485-.057-.728-.086v-.086c-.14.023-.165.166-.182.172h-.546l-.091.516h-.09l-.092.259a3.067 3.067 0 0 1-1.001-.173v.086h-.09c.067.136.082.206.09.43h.182v-.085c.16-.057.584.333.637.432h.09l-.09.256c-.576-.021-.63-.252-1.091-.343l-.092-.26h-.181c-.121-.143-.243-.285-.364-.43l-.82-.172-.09-.258h-.546c-.07.235-.022.196-.273.258v.172c-.116-.007-1.001-.172-1.001-.172v.086h-.364l.273.345m-3.64 48.028c-.054.13-.073.138-.09.343l.363.085c.078-.086.157-.12.273-.17-.105-.116-.166-.138-.364-.174-.103-.096.001-.036-.182-.085m-74.791-26.511h-.091v-.085h-.091v.258c.06-.029.12-.058.182-.086zm26.295-1.463h-.09v.258h-.092v.087c-.235.043-.402.087-.728.086l-.09.515h.09v.087c.23-.083.29-.152.637-.173.046-.232.114-.47.273-.602zm.728 1.292h-.182v.258h.091v.086h.091zm5.368 19.71h-.091v.171h.091zm2.275-29.953h-.091v.173h.091zm7.46-10.5a14.18 14.18 0 0 0-.272-.085v-.087h-.09c-.18-.203.1-.165-.274-.259v.26c.2.107.317.244.546.343v-.086h.09zm5.46 28.661v-.086h-.546c-.21-.068-.77-.416-1.183-.259l-.09.173h-.547v.086c-.323.046-.426-.243-.728.086h-.18v.086h.271c.271.13.17.246.637.258l.091.258c.422-.044.582-.173 1.092-.17v-.26h.091v-.086l1.182.085c-.054-.17.014-.073-.09-.17m.09 4.13l-.09-.172c-.282-.113-1.02.003-1.183.086l-.092.173c-.18-.03-.363-.059-.545-.087v-.086h-.09v-.345c.06-.107.876-.4 1.091-.429v-.259c-.075.037-.182.172-.182.172h-.364v.087c-.339.094-1.643-.323-1.82-.43v-.088c-.138-.1-.16-.118-.364-.172l-.09-.257c-.183-.052-.08.011-.183-.087h-.09v.516l.272-.085v.085c.091.03.182.06.273.087v.172c.06.03.121.058.182.086.294.284.317.333.91.345v.172c-.198.04-.258.055-.364.172h-.728v-.087c-.094-.06-.493-.279-.546-.343v-.173l-.182-.086v-.43c-.01-.018-.212-.149-.273-.258-.394.085-.789.171-1.183.258v.085c-.164.121-.214.2-.455.26v.171c.216.056.171.025.273.173h.091c-.064.164-.135.223-.182.43.132.072.363.236.456.344h.181c.055.172-.013.074.091.172-.043.354-.373.64-.637.775v.086c.647-.039.918-.263 1.638-.259v.344h-.273l-.09.26-.274.171v.087h-.91v.086h-.545v.086l-.455.086v-.172h-.546v.43c.398-.069.495-.04.91 0l.091.258c.337-.033.575-.307 1-.172v.086h.182v.086h.728v.087h.182v.086h.273v.086h.546v.085l.455.087v.087c.148.032.168-.085.182-.087.182.028.364.056.546.087l.091-.174h.273v-.085h.182v-.086c.212-.03.424-.058.636-.086v-.087c-.506-.174-1.19-.012-1.546-.345h-.182c.276-.313.416-.126.82-.257v-.086c.211-.029.424-.059.636-.086v-.087h.182v-.086c.366-.127 1.065.003 1.183.173.22-.053.2-.09.364-.173-.039-.43-.234-.776-.546-.946.084-.294.193-.22.273-.517zm6.461-42.862h-.182a1.81 1.81 0 0 1-.728.775c.007.287.05.389.091.602h.181c.005-.246.033-.368.092-.516h.364c.07.234.021.196.273.258-.043-.371-.139-.43.182-.601-.049-.363-.129-.282-.273-.518m.91 36.665v-.172l-.183-.171h-.181a75.28 75.28 0 0 0-.365-.431h-.09v-.258c-.097-.133-.388-.116-.546-.344-.307.03-.339.062-.455.258-.698-.017-.48-.114-.728-.517h-.09v-.172l-.456-.258v-.086c-.125.031-.307.149-.545.086v-.086h-.638v-.086l-.363.086v-.086h-.182v-.086c-.092-.029-.183-.057-.274-.087-.105.115-.166.137-.364.173l-.181.516c-.179.064-.349.026-.547.086v.085h-.364v.087h-.18v.087l-.274.172c-.054.172.013.073-.091.172v.086l.454-.086v-.086h.547v-.086c.525.027 1.62.791 1.82 1.118l.727-.086.092.345c-.263.063-.302.092-.364.344l-.273.085c-.054.128-.036.3-.092.431h-.09v.173h-.092v.344h-.09c-.146.19-.294.252-.365.516h.456l.09-.171h.365v-.086c.152-.1.126-.053.181-.259.151.028.303.056.455.086l.091-.345h-.09v-.344h.09l.091-.43c.103-.074.015.011.092-.086.705.001 1.523.01 2.092-.086l.638.43v.172h.09l.181.259.547.172.455.517h.182v.085h.546v.086c.208.082.547.156.728 0l.273-.086v-.171l-.637.171c.085-.294.194-.221.273-.516-.282-.001-.468-.025-.638-.086v-.345c-.194-.012-.368.023-.454-.086v-.258l-.364-.258a14.383 14.383 0 0 1-.091-.172c-.195-.084-.181.152-.455 0l-.091-.173-.273-.086m4.914-4.991v.086c-.278.068-.44-.056-.638-.086l-.09-.258c-.414-.074-.795-.16-1.092-.345a7.136 7.136 0 0 0-.092-.171h-.182v-.086h-.182l-.182-.173h-.18l-.093-.173-.909-.774v-.344h-.728c-.03.057-.06.115-.092.172h-.18v.257c.564.119.425.384.727.689.173.177.421.2.636.346v.086c.152.114.304.228.456.344v.344l.273.172.09.257c.465-.015.463-.104.728-.257v-.086c.153-.05.164.083.183.086h.454l.091.17h.546v-.084l.455.085c.227-.052.473-.205.728-.257-.096-.071-.473-.068-.728 0m5.096-1.895l.273-.172a2.381 2.381 0 0 0-.183-.688c-.09-.03-.181-.057-.272-.086-.077.16-.14.225-.182.431-.102.097-.04-.002-.091.171.168.086.352.19.455.344m-.274-4.217v-.086h-.273v.258h.091v.172c.14-.05.148-.069.365-.086-.057-.11-.089-.183-.183-.258m1.82 2.755h-.09v-.258c-.06-.102-.378-.116-.274-.43.061-.03.122-.057.182-.087v-.259c-.182-.052-.078.013-.182-.086h-.09v-.344h-.092c-.084-.177-.094-.343-.09-.602-.103-.075-.015.011-.092-.085h-.455v-.087h-.09l.09.26h-.09l-.092.773c-.06.028-.12.058-.18.085.054.193.074.215.18.345h.092l.09.343c.061.03.122.058.182.086v.346c.091.057.183.113.273.172v.172c.04.054.121.063.182.172h.182c.055-.17-.012-.075.092-.172v-.086h.363l-.09-.258m2.638-7.747h.091l.091.26h.091c.17.273.103.567.364.773v.086s.494-.08.636-.086l-.09.431c.102.073.014-.012.09.086.102.073.014-.012.091.086h.091v-.345h.273c-.032-.374-.142-.633 0-1.032h.091v-.345h.091v-.172c.061-.028.122-.058.182-.087v-.342l.273-.173v-.258a7.47 7.47 0 0 1 .182-.086l.092-.345.181-.087c.085-.19-.103-.237-.09-.344h.09v-.17h.091l.091-.518.273-.172.091-.258c.233-.093.387-.166.728-.172-.06-.369-.426-.539-.273-1.033h.091v-.345h.091v-.086l-.455-.085v-.259h-.364l-.09.602h-.092v.517h.091c.027.177-.09.172-.09.172v.517h-.364v.085h.09c0 .227-.044.293-.09.431h-.547l-.09.431h.09c.096.145.123.142.182.343-.248.066-.207.021-.273.26-.22-.055-.2-.092-.363-.174-.195.322-.635.621-1 .776-.056.171.011.073-.093.171.01.33-.018.36.273.43v.086h-.545v.086a.699.699 0 0 0-.182.26h-.092zm-.273-2.668c-.4-.014-.552-.05-.637.258h-.091c-.074.205.419.508.09.861-.033.584-.128.246-.363.517l-.091.26h-.273v.084c-.102.074-.014-.012-.091.086.202.072.496.092.819.085-.087.155-.13.135-.182.345.103.074.014-.013.09.086.216-.02.226-.037.365-.086-.032-.258-.008-.236-.182-.345.12-.175.335-.26.546-.343-.005-.716-.114-1.219 0-1.808m1.82-2.754h-.455l-.273 1.29c-.091.03-.182.06-.273.087-.05.372-.258.462-.455.69h-.091c-.106.143.003.196-.182.343v.258h.09c.104.097 0 .037.183.086.093-.113.276-.156.364-.258v-.172h.09v-.087l.274.087c.01-.487.042-.616.273-.86l.182-.087.09-.517c.064-.13.426-.38.365-.602l-.182-.086zM96.902 97.69c-.35.042-.253.105-.546.171-.055.173.013.075-.091.174v.086c.28-.002.467-.027.637-.086zm1.547-1.635l-.91.172c-.102.349-.222.187-.273.6h-.182l.09.69c.123-.085.244-.171.365-.257l.09-.26c.153-.027.304-.055.456-.086.03-.333.124-.472.364-.601zM112.46 1.207c.063.296.147.446.456.517l.09-.431-.546-.086m.637.946c.19-.069.508-.138.73-.172-.216-.183-.613-.014-.73.172m.637-1.205h-.273v.26c.061.027.122.056.182.085l.091.43h.091v.085h.091v-.085c.091-.03.182-.057.273-.086-.056-.406-.283-.416-.455-.689m3.185 57.065v-.087c-.149.063-.221.232-.273.259h-.273a80.67 80.67 0 0 0-.273.43c-.152-.03-.303-.057-.455-.086.057.353.02.269 0 .687l.364.087.091-.258h.091v-.173h.091v-.257c.073-.106.344-.101.455-.172v-.085c.091-.06.182-.116.273-.173-.055-.172.013-.075-.091-.172m2.184-4.046c-.103.073-.014-.012-.091.087-.221.132-.341.367-.364.687h.273l.09-.085v-.517h.092z"/></g></svg>