<svg xmlns="http://www.w3.org/2000/svg" width="256" height="341.333" viewBox="0 0 256 341.333"><defs><clipPath id="a"><path d="M0 256h192V0H0z"/></clipPath></defs><g clip-path="url(#a)" transform="matrix(1.33333 0 0 -1.33333 0 341.333)" fill="#fff"><path d="M96 208c-26.51 0-48-21.49-48-48s21.49-48 48-48 48 21.49 48 48-21.49 48-48 48"/><path d="M96 16S16 96 16 160c0 44.183 35.817 80 80 80 44.182 0 80-35.817 80-80 0-64-80-144-80-144m0 240c-52.935 0-96-43.065-96-96 0-29.944 14.461-65.372 42.98-105.3C63.514 25.953 83.832 5.541 84.686 4.687A15.949 15.949 0 0 1 96 0c4.094 0 8.19 1.562 11.314 4.687.854.854 21.172 21.266 41.706 50.013C177.539 94.628 192 130.056 192 160c0 52.935-43.066 96-96 96"/></g></svg>