<svg xmlns="http://www.w3.org/2000/svg" width="100" height="100" viewBox="0 0 100 100" preserveAspectRatio="xMidYMid"><rect x="48.5" y="1" rx="0" ry="0" width="3" height="14" fill="#33425b"><animate attributeName="opacity" values="1;0" dur="0.8s" begin="-0.7s" repeatCount="indefinite"/></rect><rect x="48.5" y="1" rx="0" ry="0" width="3" height="14" fill="#33425b" transform="rotate(45 50 50)"><animate attributeName="opacity" values="1;0" dur="0.8s" begin="-0.6s" repeatCount="indefinite"/></rect><rect x="48.5" y="1" rx="0" ry="0" width="3" height="14" fill="#33425b" transform="rotate(90 50 50)"><animate attributeName="opacity" values="1;0" dur="0.8s" begin="-0.5s" repeatCount="indefinite"/></rect><rect x="48.5" y="1" rx="0" ry="0" width="3" height="14" fill="#33425b" transform="rotate(135 50 50)"><animate attributeName="opacity" values="1;0" dur="0.8s" begin="-0.4s" repeatCount="indefinite"/></rect><rect x="48.5" y="1" rx="0" ry="0" width="3" height="14" fill="#33425b" transform="rotate(180 50 50)"><animate attributeName="opacity" values="1;0" dur="0.8s" begin="-0.3s" repeatCount="indefinite"/></rect><rect x="48.5" y="1" rx="0" ry="0" width="3" height="14" fill="#33425b" transform="rotate(225 50 50)"><animate attributeName="opacity" values="1;0" dur="0.8s" begin="-0.2s" repeatCount="indefinite"/></rect><rect x="48.5" y="1" rx="0" ry="0" width="3" height="14" fill="#33425b" transform="rotate(270 50 50)"><animate attributeName="opacity" values="1;0" dur="0.8s" begin="-0.1s" repeatCount="indefinite"/></rect><rect x="48.5" y="1" rx="0" ry="0" width="3" height="14" fill="#33425b" transform="rotate(315 50 50)"><animate attributeName="opacity" values="1;0" dur="0.8s" begin="0s" repeatCount="indefinite"/></rect></svg>