<?xml version="1.0" encoding="UTF-8" standalone="no"?>
<!-- Created with Inkscape (http://www.inkscape.org/) -->

<svg
   xmlns:dc="http://purl.org/dc/elements/1.1/"
   xmlns:cc="http://creativecommons.org/ns#"
   xmlns:rdf="http://www.w3.org/1999/02/22-rdf-syntax-ns#"
   xmlns:svg="http://www.w3.org/2000/svg"
   xmlns="http://www.w3.org/2000/svg"
   xmlns:sodipodi="http://sodipodi.sourceforge.net/DTD/sodipodi-0.dtd"
   xmlns:inkscape="http://www.inkscape.org/namespaces/inkscape"
   version="1.1"
   id="svg2"
   xml:space="preserve"
   width="319.98132"
   height="51.200001"
   viewBox="0 0 319.98132 51.200001"
   sodipodi:docname="heyllow.svg"
   inkscape:version="0.92.1 r15371"><metadata
     id="metadata8"><rdf:RDF><cc:Work
         rdf:about=""><dc:format>image/svg+xml</dc:format><dc:type
           rdf:resource="http://purl.org/dc/dcmitype/StillImage" /><dc:title></dc:title></cc:Work></rdf:RDF></metadata><defs
     id="defs6"><clipPath
       clipPathUnits="userSpaceOnUse"
       id="clipPath42"><path
         d="M 0,38.4 H 239.986 V 0 H 0 Z"
         id="path40"
         inkscape:connector-curvature="0" /></clipPath></defs><sodipodi:namedview
     pagecolor="#ffffff"
     bordercolor="#666666"
     borderopacity="1"
     objecttolerance="10"
     gridtolerance="10"
     guidetolerance="10"
     inkscape:pageopacity="0"
     inkscape:pageshadow="2"
     inkscape:window-width="640"
     inkscape:window-height="480"
     id="namedview4"
     showgrid="false"
     inkscape:zoom="1.1875693"
     inkscape:cx="159.99066"
     inkscape:cy="25.6"
     inkscape:window-x="0"
     inkscape:window-y="0"
     inkscape:window-maximized="0"
     inkscape:current-layer="g10" /><g
     id="g10"
     inkscape:groupmode="layer"
     inkscape:label="Vector Smart Object"
     transform="matrix(1.3333333,0,0,-1.3333333,0,51.2)"><g
       id="g12"
       transform="translate(20.6667,37.4508)"><path
         d="M 0,0 V -13.431 H -7.34 V 0 H -20.667 V -36.44 H -7.34 v 14.107 H 0 V -36.44 H 13.326 V 0 Z"
         style="fill:#000001;fill-opacity:1;fill-rule:nonzero;stroke:none"
         id="path14"
         inkscape:connector-curvature="0" /></g><g
       id="g16"
       transform="translate(38.73,37.4505)"><path
         d="M 0,0 H 23.738 V -10.567 H 13.327 v -3.02 h 9.578 v -8.902 h -9.578 v -3.384 H 24.259 V -36.44 H 0 Z"
         style="fill:#000001;fill-opacity:1;fill-rule:nonzero;stroke:none"
         id="path18"
         inkscape:connector-curvature="0" /></g><g
       id="g20"
       transform="translate(64.894,37.5027)"><path
         d="M 0,0 H 13.326 L 18.687,-10.724 24.051,0 H 37.377 L 25.352,-21.604 V -36.492 H 12.025 v 14.888 z"
         style="fill:#000001;fill-opacity:1;fill-rule:nonzero;stroke:none"
         id="path22"
         inkscape:connector-curvature="0" /></g><g
       id="g24"
       transform="translate(104.4468,37.4505)"><path
         d="m 0,0 h 13.326 v -25.873 h 9.578 V -36.44 H 0 Z"
         style="fill:#000001;fill-opacity:1;fill-rule:nonzero;stroke:none"
         id="path26"
         inkscape:connector-curvature="0" /></g><g
       id="g28"
       transform="translate(130.1313,37.4505)"><path
         d="m 0,0 h 13.326 v -25.873 h 9.578 V -36.44 H 0 Z"
         style="fill:#000001;fill-opacity:1;fill-rule:nonzero;stroke:none"
         id="path30"
         inkscape:connector-curvature="0" /></g><g
       id="g32"
       transform="translate(229.0536,37.4508)"><path
         d="M 0,0 -3.072,-14.004 -6.195,0 H -18.221 L -21.395,-14.004 -24.414,0 h -10.934 l 8.226,-36.44 h 11.609 l 3.279,15.2 3.332,-15.2 H 2.706 L 10.932,0 Z"
         style="fill:#000001;fill-opacity:1;fill-rule:nonzero;stroke:none"
         id="path34"
         inkscape:connector-curvature="0" /></g><g
       id="g36"><g
         id="g38"
         clip-path="url(#clipPath42)"><g
           id="g44"
           transform="translate(176.369,12.81)"><path
             d="m 0,0 c -0.946,-0.577 -1.418,-1.338 -1.418,-2.283 0,-0.623 0.225,-1.171 0.674,-1.644 0.449,-0.472 1.032,-0.71 1.748,-0.71 0.275,0 0.56,0.036 0.851,0.106 -1.329,-0.837 -2.884,-1.256 -4.666,-1.256 -1.892,0 -3.534,0.489 -4.929,1.47 -0.685,0.481 -1.291,1.067 -1.82,1.756 0.117,-0.007 0.235,-0.012 0.355,-0.012 1.478,0 2.76,0.495 3.845,1.485 1.086,0.99 1.627,2.209 1.627,3.659 0,1.68 -0.554,2.986 -1.663,3.919 -1.109,0.932 -2.423,1.397 -3.948,1.397 0,2.256 1.351,4.131 4.053,5.628 0.947,0.575 1.42,1.334 1.42,2.279 0,0.621 -0.225,1.167 -0.676,1.639 -0.348,0.365 -0.776,0.587 -1.283,0.67 0.932,0.329 1.936,0.499 3.019,0.499 2.522,0 4.59,-0.835 6.206,-2.503 -1.261,-0.104 -2.37,-0.591 -3.325,-1.466 -1.085,-0.992 -1.626,-2.214 -1.626,-3.667 0,-1.684 0.553,-2.992 1.66,-3.927 C 1.211,6.106 2.526,5.638 4.048,5.638 4.048,3.379 2.698,1.499 0,0 m -2.76,25.59 c -10.604,0 -19.2,-8.596 -19.2,-19.2 0,-10.604 8.596,-19.2 19.2,-19.2 10.604,0 19.2,8.596 19.2,19.2 0,10.604 -8.596,19.2 -19.2,19.2"
             style="fill:#000001;fill-opacity:1;fill-rule:nonzero;stroke:none"
             id="path46"
             inkscape:connector-curvature="0" /></g></g></g></g></svg>