<?xml version="1.0" encoding="UTF-8" standalone="no"?>
<!-- Created with Inkscape (http://www.inkscape.org/) -->

<svg
   xmlns:dc="http://purl.org/dc/elements/1.1/"
   xmlns:cc="http://creativecommons.org/ns#"
   xmlns:rdf="http://www.w3.org/1999/02/22-rdf-syntax-ns#"
   xmlns:svg="http://www.w3.org/2000/svg"
   xmlns="http://www.w3.org/2000/svg"
   xmlns:sodipodi="http://sodipodi.sourceforge.net/DTD/sodipodi-0.dtd"
   xmlns:inkscape="http://www.inkscape.org/namespaces/inkscape"
   version="1.1"
   id="svg2"
   xml:space="preserve"
   width="256"
   height="341.33334"
   viewBox="0 0 256 341.33334"
   sodipodi:docname="pin.svg"
   inkscape:version="0.92.1 r15371"><metadata
     id="metadata8"><rdf:RDF><cc:Work
         rdf:about=""><dc:format>image/svg+xml</dc:format><dc:type
           rdf:resource="http://purl.org/dc/dcmitype/StillImage" /><dc:title></dc:title></cc:Work></rdf:RDF></metadata><defs
     id="defs6"><clipPath
       clipPathUnits="userSpaceOnUse"
       id="clipPath18"><path
         d="M 0,256 H 192 V 0 H 0 Z"
         id="path16"
         inkscape:connector-curvature="0" /></clipPath></defs><sodipodi:namedview
     pagecolor="#ffffff"
     bordercolor="#666666"
     borderopacity="1"
     objecttolerance="10"
     gridtolerance="10"
     guidetolerance="10"
     inkscape:pageopacity="0"
     inkscape:pageshadow="2"
     inkscape:window-width="640"
     inkscape:window-height="480"
     id="namedview4"
     showgrid="false"
     inkscape:zoom="0.69140623"
     inkscape:cx="128"
     inkscape:cy="170.66667"
     inkscape:window-x="0"
     inkscape:window-y="0"
     inkscape:window-maximized="0"
     inkscape:current-layer="g10" /><g
     id="g10"
     inkscape:groupmode="layer"
     inkscape:label="Vector Smart Object2"
     transform="matrix(1.3333333,0,0,-1.3333333,0,341.33333)"><g
       id="g12"><g
         id="g14"
         clip-path="url(#clipPath18)"><g
           id="g20"
           transform="translate(96,125.7976)"><path
             d="m 0,0 c -18.89,0 -34.202,15.313 -34.202,34.202 0,18.89 15.312,34.203 34.202,34.203 18.89,0 34.202,-15.313 34.202,-34.203 C 34.202,15.313 18.89,0 0,0 m 0,82.202 c -26.51,0 -48,-21.49 -48,-48 0,-26.509 21.49,-48 48,-48 26.51,0 48,21.491 48,48 0,26.51 -21.49,48 -48,48"
             style="fill:#ffffff;fill-opacity:1;fill-rule:nonzero;stroke:none"
             id="path22"
             inkscape:connector-curvature="0" /></g><g
           id="g24"
           transform="translate(96,16)"><path
             d="m 0,0 c 0,0 -80,80 -80,144 0,44.183 35.817,80 80,80 44.182,0 80,-35.817 80,-80 C 80,80 0,0 0,0 m 0,240 c -52.935,0 -96,-43.065 -96,-96 0,-29.944 14.461,-65.372 42.98,-105.3 20.534,-28.747 40.852,-49.159 41.706,-50.013 C -8.189,-14.438 -4.095,-16 0,-16 c 4.094,0 8.19,1.562 11.314,4.687 C 12.168,-10.459 32.486,9.953 53.02,38.7 81.539,78.628 96,114.056 96,144 96,196.935 52.934,240 0,240"
             style="fill:#ffffff;fill-opacity:1;fill-rule:nonzero;stroke:none"
             id="path26"
             inkscape:connector-curvature="0" /></g></g></g></g></svg>